<?xml version="1.0" encoding="utf-8"?>
<!-- Generator: Adobe Illustrator 23.0.0, SVG Export Plug-In . SVG Version: 6.00 Build 0)  -->
<svg version="1.1" id="Layer_1" xmlns="http://www.w3.org/2000/svg" xmlns:xlink="http://www.w3.org/1999/xlink" x="0px" y="0px"
	 viewBox="0 0 317.41016 52.30469" style="enable-background:new 0 0 317.41016 52.30469;" xml:space="preserve">
<style type="text/css">
	.st0{fill:#313131;}
	.st1{fill:#565656;}
</style>
<g>
	<path class="st0" d="M16.10205,15.3125l-2.89502,0.02393c-1.13281,0-2.15332,0.16357-3.0625,0.49072
		c-0.90918,0.32666-1.68652,0.81348-2.33301,1.45898c-0.64551,0.64648-1.14014,1.45166-1.4834,2.41699
		c-0.34277,0.96484-0.51416,2.07764-0.51416,3.3374v11.79541H0V10.21631h4.71338l0.52637,2.94287
		c0.8291-0.84521,1.87842-1.54688,3.146-2.10547c1.26855-0.55811,2.77148-0.8374,4.51025-0.8374h3.20605V15.3125z"/>
	<path class="st0" d="M20.25146,22.53809c0-1.80225,0.33496-3.49707,1.00488-5.08398c0.66992-1.5874,1.60693-2.9707,2.81152-4.15137
		c1.2041-1.18018,2.63525-2.11328,4.29443-2.79932c1.65869-0.68555,3.46924-1.02881,5.43115-1.02881
		c1.97754,0,3.80029,0.34326,5.4668,1.02881c1.66699,0.68604,3.10254,1.61914,4.30664,2.79932
		c1.20459,1.18066,2.14551,2.56396,2.82324,4.15137c0.67822,1.58691,1.01709,3.28174,1.01709,5.08398
		c0,0.39893-0.01611,0.71777-0.04785,0.95703c-0.03223,0.23926-0.06396,0.4707-0.0957,0.69385H25.96973
		c0.19141,1.00488,0.53857,1.91406,1.04053,2.72754c0.50293,0.81348,1.10889,1.50342,1.81836,2.06982
		c0.70996,0.56543,1.49561,1.00488,2.35693,1.31543c0.86133,0.31152,1.74658,0.4668,2.65576,0.4668
		c1.43555,0,2.70361-0.31934,3.8042-0.95703s1.93799-1.4751,2.51221-2.51221h6.29248
		c-0.39893,1.08496-0.98096,2.12549-1.74658,3.12256c-0.76563,0.99609-1.68652,1.87793-2.76367,2.64355
		c-1.07617,0.76563-2.29688,1.37598-3.66016,1.83008c-1.36426,0.45508-2.85938,0.68164-4.48633,0.68164
		c-1.96191,0-3.77246-0.34277-5.43115-1.02832c-1.65918-0.68555-3.09033-1.61914-4.29443-2.7998
		c-1.20459-1.17969-2.1416-2.55957-2.81152-4.13867S20.25146,24.34082,20.25146,22.53809z M33.84131,14.14014
		c-0.98926,0-1.90234,0.14746-2.73926,0.44287c-0.83789,0.29492-1.5874,0.70557-2.24902,1.23193
		c-0.66211,0.52637-1.22461,1.15234-1.68701,1.87842c-0.46289,0.72559-0.80566,1.51904-1.02881,2.38037h15.14502
		c-0.22363-0.86133-0.55859-1.65479-1.00488-2.38037c-0.44678-0.72607-0.98926-1.35205-1.62695-1.87842
		c-0.63818-0.52637-1.35986-0.93701-2.16553-1.23193C35.67969,14.2876,34.79834,14.14014,33.84131,14.14014z"/>
	<path class="st0" d="M57.51416,27.41895c0.01563,0.46289,0.15576,0.90137,0.41846,1.31592
		c0.26367,0.41455,0.61816,0.77393,1.06494,1.07666c0.44629,0.30273,0.96484,0.54199,1.55518,0.71777
		c0.58984,0.17578,1.22803,0.2627,1.91406,0.2627c1.8501,0,3.21387-0.27441,4.09131-0.8252
		c0.87695-0.5498,1.31592-1.29541,1.31592-2.23682c0-0.52637-0.15967-0.96484-0.47852-1.31592
		c-0.31934-0.35059-0.78174-0.646-1.3877-0.88525c-0.60645-0.23926-1.34814-0.45068-2.2251-0.63428
		c-0.87744-0.18311-1.87451-0.37842-2.99072-0.58594c-0.55859-0.07959-1.14453-0.18311-1.75879-0.31104
		c-0.61377-0.12744-1.22412-0.29932-1.83008-0.51416c-0.60645-0.21582-1.18457-0.49072-1.73438-0.82568
		c-0.55078-0.33496-1.03711-0.74561-1.45996-1.23193c-0.42236-0.48682-0.76172-1.06885-1.0166-1.74707
		c-0.25537-0.67773-0.38281-1.479-0.38281-2.4043c0-1.14844,0.20703-2.19727,0.62207-3.14648
		c0.41455-0.94873,1.06055-1.77051,1.93799-2.46387c0.87695-0.69434,1.99365-1.23242,3.34961-1.61523
		c1.35547-0.38281,2.97461-0.57422,4.85693-0.57422c1.4834,0,2.81934,0.19141,4.00781,0.57422
		c1.18799,0.38281,2.19678,0.91748,3.02637,1.60303c0.8291,0.68604,1.46729,1.50732,1.91406,2.46436
		c0.44629,0.95703,0.66992,2.00195,0.66992,3.13428l-5.81396-0.02393c-0.06396-0.86133-0.4707-1.5708-1.22021-2.12939
		c-0.75-0.55811-1.74658-0.8374-2.99072-0.8374c-0.81348,0-1.50732,0.08398-2.08154,0.25098
		c-0.57422,0.16797-1.04492,0.38721-1.41162,0.6582c-0.36719,0.27148-0.63818,0.58594-0.81348,0.94531
		c-0.17578,0.3584-0.26318,0.72949-0.26318,1.1123c0,0.44678,0.11963,0.82178,0.35889,1.12451
		c0.23926,0.30322,0.59814,0.55859,1.07666,0.76563c0.47852,0.20752,1.08447,0.38281,1.81836,0.52637
		c0.7334,0.14355,1.59473,0.27148,2.58398,0.38281c1.19629,0.19141,2.37646,0.42676,3.54102,0.70557
		c1.16406,0.2793,2.20117,0.68213,3.11035,1.2085s1.64258,1.22021,2.20117,2.08154c0.55811,0.86133,0.8374,1.97021,0.8374,3.32568
		c0,1.3877-0.2793,2.59619-0.8374,3.62451c-0.55859,1.0293-1.34814,1.88672-2.36865,2.57227
		c-1.021,0.68555-2.24902,1.2002-3.68457,1.54297s-3.03076,0.51465-4.78516,0.51465c-1.75488,0-3.28613-0.24316-4.59375-0.72949
		c-1.30811-0.4873-2.39648-1.12109-3.26611-1.90234c-0.86914-0.78125-1.51904-1.65918-1.94971-2.63184s-0.646-1.95361-0.646-2.94287
		L57.51416,27.41895z"/>
	<path class="st0" d="M78.33984,22.53809c0-1.80225,0.33496-3.49707,1.00488-5.08398c0.66992-1.5874,1.60693-2.9707,2.81152-4.15137
		c1.2041-1.18018,2.63525-2.11328,4.29443-2.79932c1.65869-0.68555,3.46924-1.02881,5.43115-1.02881
		c1.97754,0,3.80029,0.34326,5.4668,1.02881c1.66699,0.68604,3.10254,1.61914,4.30664,2.79932
		c1.20459,1.18066,2.14551,2.56396,2.82324,4.15137c0.67822,1.58691,1.01709,3.28174,1.01709,5.08398
		c0,0.39893-0.01611,0.71777-0.04785,0.95703c-0.03223,0.23926-0.06396,0.4707-0.0957,0.69385H84.05811
		c0.19141,1.00488,0.53857,1.91406,1.04053,2.72754c0.50293,0.81348,1.10889,1.50342,1.81836,2.06982
		c0.70996,0.56543,1.49561,1.00488,2.35693,1.31543c0.86133,0.31152,1.74658,0.4668,2.65576,0.4668
		c1.43555,0,2.70361-0.31934,3.8042-0.95703s1.93799-1.4751,2.51221-2.51221h6.29248
		c-0.39893,1.08496-0.98096,2.12549-1.74658,3.12256c-0.76563,0.99609-1.68652,1.87793-2.76367,2.64355
		c-1.07617,0.76563-2.29688,1.37598-3.66016,1.83008c-1.36426,0.45508-2.85938,0.68164-4.48633,0.68164
		c-1.96191,0-3.77246-0.34277-5.43115-1.02832c-1.65918-0.68555-3.09033-1.61914-4.29443-2.7998
		c-1.20459-1.17969-2.1416-2.55957-2.81152-4.13867S78.33984,24.34082,78.33984,22.53809z M91.92969,14.14014
		c-0.98926,0-1.90234,0.14746-2.73926,0.44287c-0.83789,0.29492-1.5874,0.70557-2.24902,1.23193
		c-0.66211,0.52637-1.22461,1.15234-1.68701,1.87842c-0.46289,0.72559-0.80566,1.51904-1.02881,2.38037h15.14502
		c-0.22363-0.86133-0.55859-1.65479-1.00488-2.38037c-0.44678-0.72607-0.98926-1.35205-1.62695-1.87842
		c-0.63818-0.52637-1.35986-0.93701-2.16553-1.23193C93.76807,14.2876,92.88672,14.14014,91.92969,14.14014z"/>
	<path class="st0" d="M110.69824,22.53809c0-1.80225,0.31494-3.49707,0.94531-5.08398
		c0.62988-1.5874,1.52295-2.9707,2.67969-4.15137c1.15625-1.18018,2.54395-2.11328,4.16309-2.79932
		c1.61865-0.68555,3.41699-1.02881,5.39502-1.02881c0.9248,0,1.80615,0.0918,2.64404,0.27539
		c0.83691,0.18311,1.62257,0.43066,2.35645,0.74121c0.7334,0.31152,1.40771,0.67822,2.02148,1.10059
		c0.61426,0.42285,1.16064,0.86572,1.63916,1.32813l0.33496-2.70361h4.97656v24.61963h-4.97656l-0.33496-2.7041
		c-0.49463,0.47852-1.05273,0.92578-1.6748,1.33984c-0.62207,0.41504-1.2959,0.77832-2.02197,1.08887
		c-0.72559,0.31152-1.50684,0.55859-2.34473,0.74219c-0.83691,0.18262-1.71875,0.27441-2.64355,0.27441
		c-1.96191,0-3.75244-0.33887-5.37109-1.0166c-1.61914-0.67773-3.00293-1.60645-4.15137-2.78711s-2.04199-2.56445-2.67969-4.15137
		C111.01709,26.03516,110.69824,24.34082,110.69824,22.53809z M116.51221,22.51416c0,1.18066,0.20703,2.26514,0.62207,3.25391
		c0.41455,0.98926,0.98096,1.83838,1.69873,2.54834c0.71777,0.70898,1.55518,1.25977,2.51221,1.65039
		s1.98584,0.58594,3.08643,0.58594c1.08447,0,2.10547-0.19531,3.0625-0.58594c0.95702-0.39063,1.79053-0.94141,2.49999-1.65039
		c0.70996-0.70996,1.27197-1.55566,1.68701-2.53613c0.41455-0.98145,0.62207-2.06982,0.62207-3.26611
		c0-1.16406-0.20752-2.23682-0.62207-3.21826c-0.41504-0.98047-0.98096-1.82178-1.69873-2.52393
		c-0.71777-0.70166-1.55518-1.25195-2.51221-1.65088c-0.95703-0.39844-1.98584-0.59814-3.08643-0.59814
		s-2.12939,0.19531-3.08643,0.58643c-0.95703,0.39063-1.79053,0.94092-2.50049,1.65039
		c-0.70947,0.70996-1.26758,1.55566-1.6748,2.53613C116.71582,20.27734,116.51221,21.3501,116.51221,22.51416z"/>
	<path class="st0" d="M162.29346,15.3125l-2.89551,0.02393c-1.13281,0-2.15332,0.16357-3.06299,0.49072
		c-0.90918,0.32666-1.68652,0.81348-2.33301,1.45898c-0.64551,0.64648-1.14014,1.45166-1.4834,2.41699
		c-0.34277,0.96484-0.51416,2.07764-0.51416,3.3374v11.79541h-5.81396V10.21631h4.71338l0.52637,2.94287
		c0.8291-0.84521,1.87842-1.54688,3.146-2.10547c1.26855-0.55811,2.77197-0.8374,4.51025-0.8374h3.20703V15.3125z"/>
	<path class="st0" d="M172.20947,22.51416c0,1.24414,0.21094,2.36084,0.63379,3.34961
		c0.42188,0.98926,0.99316,1.83057,1.70996,2.52393c0.71875,0.69434,1.54395,1.22461,2.47656,1.59082
		c0.93359,0.36719,1.91016,0.55078,2.93164,0.55078c1.51465,0,2.87891-0.37109,4.09082-1.1123
		c1.21191-0.74219,2.14551-1.77441,2.7998-3.09863h5.95703c-0.36719,1.33984-0.94141,2.57227-1.72266,3.69629
		c-0.78125,1.125-1.72656,2.10156-2.83496,2.93066c-1.10938,0.83008-2.36523,1.47559-3.76855,1.93848
		c-1.40332,0.46191-2.91895,0.69336-4.5459,0.69336c-1.96191,0-3.77246-0.34277-5.43066-1.02832
		c-1.65918-0.68555-3.09082-1.61914-4.29492-2.7998c-1.20508-1.17969-2.14551-2.55957-2.82324-4.13867
		c-0.67871-1.5791-1.0166-3.26953-1.0166-5.07227c0-1.80225,0.33398-3.49707,1.00391-5.08398
		c0.66992-1.5874,1.60742-2.9751,2.81152-4.16309c1.2041-1.18848,2.63574-2.12549,4.29492-2.81152
		c1.65918-0.68555,3.47754-1.02881,5.45508-1.02881c1.62695,0,3.1377,0.23145,4.53418,0.69385
		c1.39551,0.46289,2.64746,1.10449,3.75586,1.92578c1.1084,0.82178,2.05371,1.79883,2.83594,2.93115
		c0.78125,1.13281,1.36328,2.36865,1.74609,3.7085h-5.95703c-0.63867-1.30762-1.56738-2.33301-2.78809-3.07422
		c-1.21973-0.74219-2.58789-1.11279-4.10254-1.11279c-1.03711,0-2.02246,0.18359-2.95508,0.55029
		c-0.93359,0.36719-1.75488,0.89746-2.46484,1.59082c-0.70996,0.69434-1.27637,1.53564-1.69824,2.52441
		C172.42041,20.17773,172.20947,21.28613,172.20947,22.51416z"/>
	<path class="st0" d="M224.11377,34.83594h-5.86133V21.58105c0-1.33984-0.14453-2.46045-0.43164-3.36133
		c-0.28711-0.90137-0.70508-1.62695-1.25586-2.17773c-0.5498-0.5498-1.21973-0.94092-2.00977-1.17188
		c-0.78906-0.23145-1.69434-0.34717-2.71484-0.34717c-0.94141,0-1.82324,0.16748-2.64453,0.50244s-1.53125,0.81348-2.12891,1.43555
		c-0.59863,0.62207-1.06934,1.36768-1.41211,2.2373c-0.34277,0.86914-0.51367,1.83008-0.51367,2.88281v13.27832h-5.81445V1.12451
		h5.79004l-0.02441,11.34082c0.95703-0.84521,2.11426-1.55518,3.46973-2.12939s2.82324-0.86133,4.40234-0.86133
		c1.91406,0,3.57324,0.26318,4.97656,0.78955s2.56348,1.30029,3.48145,2.3208c0.91699,1.021,1.59473,2.27686,2.0332,3.76855
		c0.43848,1.49121,0.6582,3.20215,0.6582,5.13184V34.83594z"/>
	<path class="st0" d="M231.06201,3.25391c0-0.44629,0.08789-0.86523,0.26367-1.25586
		c0.17578-0.39111,0.41895-0.73389,0.72949-1.0293c0.31152-0.29492,0.69043-0.52979,1.13672-0.70557
		C233.63818,0.08789,234.1333,0,234.67529,0s1.04102,0.08789,1.49512,0.26318c0.45508,0.17578,0.8418,0.41064,1.16113,0.70557
		c0.31836,0.29541,0.56543,0.63818,0.74121,1.0293c0.17578,0.39063,0.2627,0.80957,0.2627,1.25586
		c0,0.44678-0.08691,0.86523-0.2627,1.25586c-0.17578,0.39111-0.42285,0.73389-0.74121,1.0293
		c-0.31934,0.29492-0.70605,0.52637-1.16113,0.69336c-0.4541,0.16797-0.95313,0.25146-1.49512,0.25146
		s-1.0332-0.0835-1.47168-0.25146c-0.43848-0.16699-0.81738-0.39844-1.13574-0.69336
		c-0.31934-0.29541-0.56641-0.63818-0.74219-1.0293C231.1499,4.11914,231.06201,3.70068,231.06201,3.25391z M231.7085,10.21631
		h5.86133v24.61963h-5.86133V10.21631z"/>
	<path class="st0" d="M250.69287,22.51416c0,1.24414,0.21094,2.36084,0.63379,3.34961
		c0.42188,0.98926,0.99316,1.83057,1.70996,2.52393c0.71875,0.69434,1.54395,1.22461,2.47656,1.59082
		c0.93359,0.36719,1.91016,0.55078,2.93164,0.55078c1.51465,0,2.87891-0.37109,4.09082-1.1123
		c1.21191-0.74219,2.14551-1.77441,2.7998-3.09863h5.95703c-0.36719,1.33984-0.94141,2.57227-1.72266,3.69629
		c-0.78125,1.125-1.72656,2.10156-2.83496,2.93066c-1.10938,0.83008-2.36523,1.47559-3.76855,1.93848
		c-1.40332,0.46191-2.91895,0.69336-4.5459,0.69336c-1.96191,0-3.77246-0.34277-5.43066-1.02832
		c-1.65918-0.68555-3.09082-1.61914-4.29492-2.7998c-1.20508-1.17969-2.14551-2.55957-2.82324-4.13867
		c-0.67871-1.5791-1.0166-3.26953-1.0166-5.07227c0-1.80225,0.33398-3.49707,1.00391-5.08398
		c0.66992-1.5874,1.60742-2.9751,2.81152-4.16309c1.2041-1.18848,2.63574-2.12549,4.29492-2.81152
		c1.65918-0.68555,3.47754-1.02881,5.45508-1.02881c1.62695,0,3.1377,0.23145,4.53418,0.69385
		c1.39551,0.46289,2.64746,1.10449,3.75586,1.92578c1.1084,0.82178,2.05371,1.79883,2.83594,2.93115
		c0.78125,1.13281,1.36328,2.36865,1.74609,3.7085h-5.95703c-0.63867-1.30762-1.56738-2.33301-2.78809-3.07422
		c-1.21973-0.74219-2.58789-1.11279-4.10254-1.11279c-1.03711,0-2.02246,0.18359-2.95508,0.55029
		c-0.93359,0.36719-1.75488,0.89746-2.46484,1.59082c-0.70996,0.69434-1.27637,1.53564-1.69824,2.52441
		C250.90381,20.17773,250.69287,21.28613,250.69287,22.51416z"/>
	<path class="st0" d="M276.37451,22.53809c0-1.80225,0.31445-3.49707,0.94531-5.08398
		c0.62988-1.5874,1.52246-2.9707,2.67969-4.15137c1.15625-1.18018,2.54395-2.11328,4.16309-2.79932
		c1.61816-0.68555,3.41699-1.02881,5.39551-1.02881c0.9248,0,1.80566,0.0918,2.64355,0.27539
		c0.83691,0.18311,1.62305,0.43066,2.35645,0.74121c0.7334,0.31152,1.40723,0.67822,2.02148,1.10059
		c0.61426,0.42285,1.16016,0.86572,1.63867,1.32813l0.33594-2.70361h4.97656v24.61963h-4.97656l-0.33594-2.7041
		c-0.49414,0.47852-1.05273,0.92578-1.67383,1.33984c-0.62305,0.41504-1.29688,0.77832-2.02246,1.08887
		c-0.72559,0.31152-1.50684,0.55859-2.34473,0.74219c-0.83691,0.18262-1.71875,0.27441-2.64355,0.27441
		c-1.96191,0-3.75293-0.33887-5.37109-1.0166c-1.61914-0.67773-3.00293-1.60645-4.15137-2.78711s-2.04199-2.56445-2.67969-4.15137
		S276.37451,24.34082,276.37451,22.53809z M282.18896,22.51416c0,1.18066,0.20703,2.26514,0.62109,3.25391
		c0.41504,0.98926,0.98145,1.83838,1.69922,2.54834c0.71777,0.70898,1.55469,1.25977,2.51172,1.65039
		s1.98633,0.58594,3.08691,0.58594c1.08496,0,2.10547-0.19531,3.0625-0.58594s1.79004-0.94141,2.5-1.65039
		c0.70996-0.70996,1.27246-1.55566,1.68652-2.53613c0.41504-0.98145,0.62305-2.06982,0.62305-3.26611
		c0-1.16406-0.20801-2.23682-0.62305-3.21826c-0.41406-0.98047-0.98047-1.82178-1.69824-2.52393
		c-0.71777-0.70166-1.55566-1.25195-2.5127-1.65088c-0.95703-0.39844-1.98535-0.59814-3.08594-0.59814
		s-2.12891,0.19531-3.08594,0.58643c-0.95703,0.39063-1.79102,0.94092-2.50098,1.65039
		c-0.70996,0.70996-1.26758,1.55566-1.6748,2.53613C282.39209,20.27734,282.18896,21.3501,282.18896,22.51416z"/>
</g>
<g>
	<g>
		<path class="st0" d="M306.99512,10.87235c0-0.4668,0.05957-0.91553,0.18066-1.34717
			c0.12012-0.43115,0.29102-0.83447,0.51172-1.20898c0.22168-0.375,0.48926-0.71533,0.80273-1.02197
			c0.31348-0.30615,0.66406-0.56885,1.0498-0.78809c0.38672-0.21924,0.80371-0.38916,1.25195-0.50928
			s0.91699-0.18018,1.40723-0.18018s0.95898,0.06006,1.40723,0.18018c0.44727,0.12012,0.86523,0.29004,1.25098,0.50928
			c0.38672,0.21924,0.7373,0.48193,1.05078,0.78809c0.31348,0.30664,0.58203,0.64697,0.80566,1.02197
			c0.22363,0.37451,0.39551,0.77783,0.5166,1.20898c0.12012,0.43164,0.17969,0.88037,0.17969,1.34717
			c0,0.69775-0.13281,1.354-0.39941,1.96924s-0.63379,1.15137-1.10254,1.6084c-0.46973,0.45752-1.02148,0.81934-1.65527,1.08545
			s-1.31836,0.39941-2.05371,0.39941c-0.49023,0-0.95898-0.06006-1.40723-0.18018s-0.86523-0.29004-1.25195-0.50928
			c-0.38574-0.21875-0.73633-0.48291-1.0498-0.7915c-0.31348-0.30908-0.58105-0.65088-0.80273-1.02539
			c-0.2207-0.375-0.3916-0.77783-0.51172-1.20898C307.05469,11.78787,306.99512,11.33914,306.99512,10.87235z M308.03418,10.87235
			c0,0.60791,0.1084,1.16553,0.3252,1.67236s0.51367,0.94287,0.8916,1.30811c0.37695,0.36523,0.81836,0.64941,1.3252,0.85205
			s1.04785,0.30371,1.62305,0.30371c0.58008,0,1.12402-0.10107,1.63281-0.30371c0.50977-0.20264,0.95117-0.48682,1.32617-0.85205
			s0.6709-0.80127,0.8877-1.30811s0.3252-1.06445,0.3252-1.67236s-0.1084-1.16553-0.3252-1.67236s-0.5127-0.94141-0.8877-1.30469
			c-0.375-0.36279-0.81641-0.64551-1.32617-0.84814c-0.50879-0.20264-1.05273-0.3042-1.63281-0.3042
			c-0.5752,0-1.11621,0.10156-1.62305,0.3042s-0.94824,0.48535-1.3252,0.84814c-0.37793,0.36328-0.6748,0.79785-0.8916,1.30469
			S308.03418,10.26444,308.03418,10.87235z M312.55957,11.7703h-1.35059v2.18506h-1.13086V7.77518h2.53125
			c0.28711,0,0.55566,0.05078,0.80566,0.15234c0.25,0.10107,0.46973,0.24023,0.6582,0.41699s0.33691,0.3877,0.44531,0.63281
			s0.16211,0.51172,0.16211,0.79883c0,0.40088-0.09668,0.75342-0.28906,1.05713c-0.19336,0.3042-0.45117,0.53857-0.77148,0.70361
			l1.20215,2.41846h-1.20215L312.55957,11.7703z M312.51758,10.85086c0.1416,0,0.27539-0.02783,0.40234-0.08447
			c0.12793-0.05664,0.23828-0.1333,0.33301-0.22998c0.09375-0.09668,0.16797-0.20947,0.22266-0.33936
			c0.05371-0.12939,0.08105-0.27002,0.08105-0.4209c0-0.146-0.02734-0.28516-0.08105-0.41699
			c-0.05469-0.13184-0.12695-0.24756-0.21973-0.34668c-0.0918-0.09863-0.20117-0.17676-0.32813-0.2334
			c-0.12793-0.05615-0.26465-0.08447-0.41016-0.08447h-1.30859v2.15625C311.20898,10.85086,312.51758,10.85086,312.51758,10.85086z"
			/>
	</g>
</g>
<g>
	<path class="st1" d="M5.86133,47.30371l-0.71387,0.00586c-0.2793,0-0.53076,0.04004-0.75488,0.12109
		c-0.22412,0.08008-0.41602,0.2002-0.5752,0.35938s-0.28076,0.35742-0.36572,0.5957
		c-0.08447,0.23828-0.12646,0.51172-0.12646,0.82227v2.9082H1.89209v-6.06934h1.16162l0.12988,0.72559
		c0.2041-0.20801,0.46289-0.38086,0.77539-0.51855s0.68311-0.20703,1.11182-0.20703h0.79053V47.30371z"/>
	<path class="st1" d="M6.77539,49.08496c0-0.44434,0.08252-0.8623,0.24756-1.25391c0.16553-0.39063,0.39648-0.73242,0.69336-1.02344
		c0.29688-0.29102,0.64941-0.52051,1.05859-0.68945c0.40869-0.16895,0.85498-0.25391,1.33887-0.25391
		c0.4873,0,0.93652,0.08496,1.34766,0.25391c0.41064,0.16895,0.76465,0.39844,1.06152,0.68945s0.52881,0.63281,0.69629,1.02344
		c0.16699,0.3916,0.25049,0.80957,0.25049,1.25391c0,0.09766-0.00391,0.17676-0.01172,0.23535
		c-0.00781,0.05957-0.01611,0.11621-0.02393,0.1709H8.18506c0.04736,0.24805,0.13281,0.47266,0.25635,0.67285
		c0.12402,0.2002,0.27344,0.37012,0.44824,0.50977c0.17529,0.13965,0.36865,0.24805,0.58105,0.3252
		c0.2124,0.07617,0.43066,0.11426,0.65479,0.11426c0.354,0,0.6665-0.07813,0.93799-0.23535
		c0.271-0.15723,0.47754-0.36426,0.61914-0.61914h1.55127c-0.09863,0.2666-0.24219,0.52344-0.43066,0.76953
		c-0.18896,0.24512-0.41602,0.46289-0.68115,0.65137c-0.26563,0.18848-0.56641,0.33887-0.90234,0.45117
		c-0.33643,0.1123-0.70508,0.16797-1.10596,0.16797c-0.48389,0-0.93018-0.08398-1.33887-0.25293
		c-0.40918-0.16992-0.76172-0.39941-1.05859-0.69043s-0.52783-0.63086-0.69336-1.02051
		C6.85791,49.94531,6.77539,49.5293,6.77539,49.08496z M10.12549,47.01465c-0.24365,0-0.46875,0.03613-0.67529,0.10938
		c-0.20654,0.07227-0.39111,0.17383-0.5542,0.30371c-0.16357,0.12891-0.30225,0.2832-0.41602,0.46289
		c-0.11426,0.17871-0.19873,0.37402-0.25342,0.58691h3.7334c-0.05518-0.21289-0.1377-0.4082-0.24805-0.58691
		c-0.10986-0.17969-0.24365-0.33398-0.40088-0.46289c-0.15723-0.12988-0.33545-0.23145-0.53369-0.30371
		C10.57861,47.05078,10.36133,47.01465,10.12549,47.01465z"/>
	<path class="st1" d="M15.85254,50.28809c0.00391,0.11426,0.03857,0.22168,0.10352,0.32422
		c0.06445,0.10254,0.15234,0.19043,0.26221,0.26563c0.10986,0.07422,0.23779,0.13379,0.3833,0.17676
		s0.30273,0.06445,0.47217,0.06445c0.45605,0,0.79199-0.06738,1.0083-0.20313s0.32422-0.31934,0.32422-0.55176
		c0-0.12988-0.03906-0.2373-0.11768-0.32422c-0.07861-0.08594-0.19287-0.15918-0.34229-0.21777
		c-0.14941-0.05957-0.33203-0.11133-0.54834-0.15625c-0.21631-0.0459-0.46191-0.09375-0.7373-0.14453
		c-0.1377-0.02051-0.28223-0.0459-0.43359-0.07715s-0.30176-0.07324-0.45117-0.12695
		c-0.14941-0.05273-0.29199-0.12109-0.42773-0.20313c-0.13525-0.08301-0.25537-0.18359-0.35938-0.30371
		c-0.10449-0.12012-0.18799-0.26367-0.25098-0.43066s-0.09424-0.36426-0.09424-0.59277c0-0.2832,0.05078-0.54199,0.15332-0.77539
		c0.10205-0.23438,0.26123-0.43652,0.47754-0.60742s0.4917-0.30371,0.82568-0.39844c0.33447-0.09473,0.7334-0.1416,1.19775-0.1416
		c0.36523,0,0.69482,0.04688,0.98779,0.1416s0.5415,0.22656,0.74609,0.39551c0.2041,0.16895,0.36182,0.37109,0.47168,0.60742
		c0.10986,0.23535,0.16504,0.49316,0.16504,0.77246l-1.43311-0.00586c-0.01563-0.21289-0.11621-0.3877-0.30078-0.52539
		c-0.18506-0.1377-0.43066-0.20605-0.7373-0.20605c-0.20068,0-0.37158,0.02051-0.51318,0.06152
		c-0.1416,0.04199-0.25732,0.0957-0.34766,0.16211c-0.09082,0.06738-0.15771,0.14453-0.20068,0.2334
		c-0.04346,0.08887-0.06494,0.17969-0.06494,0.27441c0,0.11035,0.0293,0.20215,0.08838,0.27734
		c0.05908,0.07422,0.14746,0.1377,0.26563,0.18848c0.11768,0.05078,0.26709,0.09473,0.44824,0.12988
		c0.18066,0.03516,0.39307,0.06641,0.63672,0.09473c0.29492,0.04688,0.58594,0.10449,0.87305,0.17383
		c0.28711,0.06836,0.54248,0.16797,0.7666,0.29785s0.40527,0.30078,0.54297,0.5127c0.13721,0.21289,0.20605,0.48535,0.20605,0.82031
		c0,0.3418-0.06885,0.63965-0.20605,0.89355c-0.1377,0.25293-0.33252,0.46484-0.58398,0.63379
		c-0.25195,0.16895-0.55469,0.2959-0.9082,0.37988c-0.354,0.08496-0.74707,0.12695-1.17969,0.12695
		s-0.81006-0.05957-1.13232-0.17969c-0.32275-0.12012-0.59082-0.27637-0.80518-0.46875s-0.37451-0.40918-0.48096-0.64844
		c-0.10596-0.24023-0.15918-0.48242-0.15918-0.72559L15.85254,50.28809z"/>
	<path class="st1" d="M20.87744,49.08496c0-0.44434,0.08252-0.8623,0.24756-1.25391
		c0.16553-0.39063,0.39648-0.73242,0.69336-1.02344s0.64941-0.52051,1.05859-0.68945
		c0.40869-0.16895,0.85498-0.25391,1.33887-0.25391c0.4873,0,0.93652,0.08496,1.34766,0.25391
		c0.41064,0.16895,0.76465,0.39844,1.06152,0.68945s0.52881,0.63281,0.69629,1.02344
		c0.16699,0.3916,0.25049,0.80957,0.25049,1.25391c0,0.09766-0.00391,0.17676-0.01172,0.23535
		c-0.00781,0.05957-0.01611,0.11621-0.02393,0.1709h-5.24902c0.04736,0.24805,0.13281,0.47266,0.25635,0.67285
		c0.12402,0.2002,0.27344,0.37012,0.44824,0.50977c0.17529,0.13965,0.36865,0.24805,0.58105,0.3252
		c0.2124,0.07617,0.43066,0.11426,0.65479,0.11426c0.354,0,0.6665-0.07813,0.93799-0.23535
		c0.271-0.15723,0.47754-0.36426,0.61914-0.61914h1.55127c-0.09863,0.2666-0.24219,0.52344-0.43066,0.76953
		c-0.18896,0.24512-0.41602,0.46289-0.68115,0.65137c-0.26563,0.18848-0.56641,0.33887-0.90234,0.45117
		c-0.33643,0.1123-0.70508,0.16797-1.10596,0.16797c-0.48389,0-0.93018-0.08398-1.33887-0.25293
		c-0.40918-0.16992-0.76172-0.39941-1.05859-0.69043s-0.52783-0.63086-0.69336-1.02051
		C20.95996,49.94531,20.87744,49.5293,20.87744,49.08496z M24.22754,47.01465c-0.24365,0-0.46875,0.03613-0.67529,0.10938
		c-0.20654,0.07227-0.39111,0.17383-0.5542,0.30371c-0.16357,0.12891-0.30225,0.2832-0.41602,0.46289
		c-0.11426,0.17871-0.19873,0.37402-0.25342,0.58691h3.7334c-0.05518-0.21289-0.1377-0.4082-0.24805-0.58691
		c-0.10986-0.17969-0.24365-0.33398-0.40088-0.46289c-0.15723-0.12988-0.33545-0.23145-0.53369-0.30371
		C24.68066,47.05078,24.46338,47.01465,24.22754,47.01465z"/>
	<path class="st1" d="M28.74561,49.08496c0-0.44434,0.07764-0.8623,0.23291-1.25391
		c0.15527-0.39063,0.37549-0.73242,0.66064-1.02344s0.62695-0.52051,1.02637-0.68945
		c0.39893-0.16895,0.84229-0.25391,1.33008-0.25391c0.22754,0,0.44482,0.02246,0.65137,0.06836
		c0.20654,0.04492,0.40039,0.10547,0.58105,0.18262c0.18066,0.07617,0.34717,0.16699,0.49854,0.27148
		c0.15137,0.10352,0.28613,0.21289,0.40381,0.32715l0.08252-0.66699h1.22705v6.06934H34.2129l-0.08252-0.66602
		c-0.12207,0.11719-0.25928,0.22754-0.4126,0.33008c-0.15332,0.10156-0.31982,0.19141-0.49854,0.26855
		c-0.1792,0.07617-0.37158,0.13672-0.57813,0.18262c-0.20654,0.04492-0.42383,0.06738-0.65186,0.06738
		c-0.4834,0-0.9248-0.08301-1.32373-0.25c-0.39941-0.16797-0.74023-0.39648-1.02344-0.6875s-0.50342-0.63184-0.66064-1.02344
		S28.74561,49.5293,28.74561,49.08496z M30.17871,49.0791c0,0.29102,0.05127,0.55762,0.15332,0.80176
		c0.10254,0.24414,0.2417,0.45313,0.41895,0.62793c0.17676,0.1748,0.3833,0.31055,0.61914,0.40723s0.48975,0.14453,0.76074,0.14453
		c0.26758,0,0.51904-0.04785,0.75488-0.14453c0.23633-0.09668,0.44141-0.23242,0.6167-0.40723
		c0.1748-0.1748,0.31348-0.38281,0.41553-0.625c0.10254-0.24219,0.15332-0.50977,0.15332-0.80469
		c0-0.28711-0.05078-0.55176-0.15332-0.79395c-0.10205-0.24121-0.2417-0.44922-0.41846-0.62207
		c-0.17725-0.17285-0.3833-0.30859-0.61963-0.40723c-0.23584-0.09766-0.48926-0.14746-0.76074-0.14746
		c-0.271,0-0.5249,0.04883-0.76074,0.14453c-0.23584,0.09668-0.44141,0.23242-0.61621,0.40723
		c-0.17529,0.1748-0.3125,0.38379-0.41309,0.625C30.229,48.52734,30.17871,48.79199,30.17871,49.0791z"/>
	<path class="st1" d="M41.35547,47.30371l-0.71387,0.00586c-0.2793,0-0.53076,0.04004-0.75488,0.12109
		c-0.22412,0.08008-0.41602,0.2002-0.5752,0.35938s-0.28076,0.35742-0.36572,0.5957
		c-0.08447,0.23828-0.12646,0.51172-0.12646,0.82227v2.9082h-1.43311v-6.06934h1.16162l0.12988,0.72559
		c0.2041-0.20801,0.46289-0.38086,0.77539-0.51855s0.68311-0.20703,1.11182-0.20703h0.79053
		C41.35547,46.04688,41.35547,47.30371,41.35547,47.30371z"/>
	<path class="st1" d="M43.69092,49.0791c0,0.30664,0.05225,0.58203,0.15625,0.8252c0.10449,0.24414,0.24512,0.45117,0.42188,0.62207
		s0.38037,0.30176,0.61035,0.39258s0.4707,0.13574,0.72266,0.13574c0.37354,0,0.70947-0.0918,1.0083-0.27441
		s0.52881-0.4375,0.69043-0.76367h1.46826c-0.09033,0.33008-0.23193,0.63379-0.42432,0.91113
		c-0.19287,0.27734-0.42578,0.51855-0.69922,0.72266s-0.58301,0.36328-0.92871,0.47754
		c-0.34619,0.11426-0.71973,0.1709-1.12061,0.1709c-0.48389,0-0.93018-0.08398-1.33887-0.25293
		c-0.40918-0.16992-0.76221-0.39941-1.05859-0.69043c-0.29736-0.29102-0.5293-0.63086-0.69629-1.02051
		s-0.25049-0.80566-0.25049-1.25s0.08252-0.8623,0.24756-1.25391c0.16504-0.39063,0.396-0.7334,0.69287-1.02637
		s0.6499-0.52344,1.05908-0.69238c0.40869-0.16895,0.85693-0.25391,1.34473-0.25391c0.40088,0,0.77344,0.05664,1.11768,0.1709
		c0.34375,0.11426,0.65234,0.27246,0.92578,0.47461c0.27344,0.20313,0.50635,0.44336,0.69922,0.72266
		c0.19238,0.2793,0.33594,0.58398,0.43018,0.91406h-1.46826c-0.15771-0.32227-0.38672-0.5752-0.6875-0.75781
		s-0.6377-0.27441-1.01123-0.27441c-0.25586,0-0.49854,0.0459-0.72852,0.13574c-0.22998,0.09082-0.43262,0.22168-0.60742,0.39258
		c-0.17529,0.1709-0.31445,0.37891-0.41895,0.62207C43.74316,48.50293,43.69092,48.77637,43.69092,49.0791z"/>
	<path class="st1" d="M56.37793,52.11621h-1.44531v-3.26758c0-0.33008-0.03516-0.60645-0.10596-0.82813
		c-0.0708-0.22266-0.17383-0.40137-0.30957-0.53711s-0.30078-0.23242-0.49561-0.28906s-0.41797-0.08594-0.66943-0.08594
		c-0.23193,0-0.44922,0.04199-0.65186,0.12402c-0.20264,0.08301-0.37744,0.20117-0.5249,0.35449s-0.26318,0.33691-0.34766,0.55078
		c-0.08496,0.21484-0.12695,0.45117-0.12695,0.71094v3.27344h-1.43311v-8.31641h1.42725l-0.00586,2.7959
		c0.23584-0.20801,0.521-0.38379,0.85498-0.52539c0.33447-0.14063,0.69629-0.21191,1.08545-0.21191
		c0.47168,0,0.88086,0.06445,1.22656,0.19434c0.34619,0.12988,0.63232,0.32129,0.8584,0.57227
		c0.22607,0.25195,0.39307,0.56152,0.50098,0.92871c0.1084,0.36816,0.1626,0.79004,0.1626,1.26563
		C56.37793,48.8252,56.37793,52.11621,56.37793,52.11621z"/>
	<path class="st1" d="M65.90283,51.4375c-0.38135,0.27148-0.78369,0.48145-1.20605,0.62891
		c-0.42285,0.14746-0.84277,0.2207-1.25928,0.2207c-0.40527,0-0.78467-0.05762-1.13867-0.17383
		c-0.35352-0.11621-0.66309-0.27832-0.92871-0.48633c-0.26563-0.20898-0.47461-0.45996-0.62793-0.75488
		c-0.15381-0.29492-0.23047-0.62012-0.23047-0.97363c0-0.30664,0.05713-0.5791,0.17139-0.81641
		c0.11377-0.23828,0.26025-0.44922,0.43945-0.63477c0.17871-0.18457,0.37842-0.34863,0.59863-0.49219
		s0.43799-0.27441,0.6543-0.39258c-0.11377-0.09375-0.22705-0.2041-0.33887-0.33008c-0.1123-0.12598-0.2124-0.2627-0.30078-0.41016
		s-0.16016-0.30664-0.21533-0.47754S61.438,45.99413,61.438,45.80566c0-0.2832,0.05615-0.54199,0.16797-0.77637
		c0.1123-0.2334,0.26953-0.43359,0.47168-0.60156c0.20264-0.16699,0.44336-0.2959,0.72266-0.38574
		c0.2793-0.09082,0.58594-0.13574,0.91992-0.13574c0.34229,0,0.65479,0.04199,0.93799,0.12695
		c0.2832,0.08398,0.5249,0.20801,0.72559,0.37109c0.2002,0.16309,0.35596,0.36328,0.46582,0.59863
		c0.10986,0.23633,0.16504,0.50586,0.16504,0.80859c0,0.23145-0.04297,0.44531-0.12939,0.63965
		c-0.08691,0.19434-0.20264,0.37402-0.34814,0.53711s-0.31348,0.31348-0.50439,0.45117s-0.39209,0.2627-0.60449,0.37695
		l1.58643,1.79297c0.16504-0.22363,0.29883-0.46484,0.40137-0.72266c0.10205-0.25684,0.16699-0.52148,0.19434-0.79297
		l1.30371,0.00586c-0.03174,0.46387-0.14063,0.9043-0.32764,1.32129c-0.18652,0.41699-0.42725,0.79785-0.72217,1.14453
		l1.37988,1.55078h-1.72217L65.90283,51.4375z M63.39014,51.04883c0.29492,0,0.58398-0.0459,0.86719-0.13867
		c0.28271-0.09277,0.55225-0.22363,0.80811-0.39258l-1.89355-2.08203c-0.1416,0.0791-0.28516,0.16211-0.43066,0.25098
		s-0.27588,0.18848-0.39209,0.30078s-0.21143,0.24023-0.28613,0.38379s-0.11182,0.30762-0.11182,0.49219
		s0.03906,0.35059,0.11768,0.49805s0.18408,0.27246,0.31592,0.375c0.13135,0.10156,0.28369,0.17969,0.45703,0.23242
		C63.01465,51.02246,63.19727,51.04883,63.39014,51.04883z M62.86523,45.94141c0,0.10547,0.01855,0.20703,0.05615,0.30371
		c0.03711,0.0957,0.08545,0.18848,0.14453,0.27637c0.05859,0.08887,0.12451,0.1748,0.19727,0.25684
		c0.07275,0.08301,0.14453,0.16113,0.21533,0.23633c0.11035-0.05566,0.23096-0.11621,0.36279-0.18262
		c0.13184-0.06738,0.25244-0.14551,0.36279-0.23633c0.10986-0.09082,0.20264-0.19727,0.27734-0.32129
		s0.11182-0.26855,0.11182-0.43359c0-0.22852-0.07471-0.41406-0.22412-0.55762s-0.34766-0.21484-0.5957-0.21484
		c-0.14941,0-0.28125,0.02344-0.39502,0.07031c-0.11426,0.04785-0.20947,0.11035-0.28613,0.18848
		c-0.07666,0.0791-0.13379,0.17188-0.1709,0.27734C62.88379,45.71094,62.86523,45.82324,62.86523,45.94141z"/>
	<path class="st1" d="M72.26709,44.33105c0-0.11035,0.02148-0.21387,0.06445-0.30957
		c0.04346-0.09668,0.10352-0.18066,0.18018-0.25391c0.07666-0.07227,0.16992-0.13086,0.28027-0.17383
		c0.10986-0.04297,0.23193-0.06543,0.36523-0.06543c0.13379,0,0.25684,0.02246,0.36865,0.06543
		c0.1123,0.04297,0.20752,0.10156,0.28613,0.17383c0.07861,0.07324,0.13965,0.15723,0.18311,0.25391
		c0.04297,0.0957,0.06494,0.19922,0.06494,0.30957s-0.02197,0.21289-0.06494,0.30957
		c-0.04346,0.09668-0.10449,0.18066-0.18311,0.25391c-0.07861,0.07227-0.17383,0.12891-0.28613,0.1709
		c-0.11182,0.04102-0.23486,0.06152-0.36865,0.06152c-0.1333,0-0.25439-0.02051-0.3623-0.06152
		c-0.1084-0.04199-0.20166-0.09863-0.28027-0.1709c-0.07861-0.07324-0.13965-0.15723-0.18311-0.25391
		C72.28857,44.54395,72.26709,44.44141,72.26709,44.33105z M72.42627,46.04688h1.44482v6.06934h-1.44482V46.04688z"/>
	<path class="st1" d="M82.02832,52.11621h-1.44531v-3.23828c0-0.32227-0.03516-0.5957-0.10596-0.81934
		c-0.0708-0.22461-0.1709-0.40723-0.30078-0.54883s-0.28809-0.24414-0.4751-0.30664c-0.18652-0.0625-0.396-0.09473-0.62793-0.09473
		c-0.25146,0-0.48291,0.04688-0.69287,0.13867c-0.21045,0.09277-0.39258,0.22266-0.5459,0.38965s-0.27197,0.36523-0.35645,0.5957
		c-0.08496,0.22949-0.12695,0.48242-0.12695,0.75781v3.12598h-1.43311v-6.06934h1.16748l0.10645,0.61328
		c0.12549-0.10938,0.26709-0.21289,0.42432-0.30957c0.15723-0.0957,0.32568-0.18066,0.50439-0.25293
		c0.1792-0.07324,0.3667-0.12988,0.56348-0.17188c0.19629-0.04102,0.39502-0.06152,0.5957-0.06152
		c0.47168,0,0.88086,0.06641,1.22656,0.19727c0.34619,0.13184,0.63232,0.3252,0.8584,0.57813
		c0.22607,0.25391,0.39307,0.56641,0.50098,0.93848c0.1084,0.37109,0.1626,0.79492,0.1626,1.27051v3.26758H82.02832z"/>
	<path class="st1" d="M89.81934,52.11621h-1.44531v-3.23828c0-0.32227-0.03516-0.5957-0.10596-0.81934
		c-0.0708-0.22461-0.1709-0.40723-0.30078-0.54883s-0.28809-0.24414-0.4751-0.30664c-0.18652-0.0625-0.396-0.09473-0.62793-0.09473
		c-0.25146,0-0.48291,0.04688-0.69287,0.13867c-0.21045,0.09277-0.39258,0.22266-0.5459,0.38965s-0.27197,0.36523-0.35645,0.5957
		c-0.08496,0.22949-0.12695,0.48242-0.12695,0.75781v3.12598h-1.43311v-6.06934h1.16748l0.10645,0.61328
		c0.12549-0.10938,0.26709-0.21289,0.42432-0.30957c0.15723-0.0957,0.32568-0.18066,0.50439-0.25293
		c0.1792-0.07324,0.3667-0.12988,0.56348-0.17188c0.19629-0.04102,0.39502-0.06152,0.5957-0.06152
		c0.47168,0,0.88086,0.06641,1.22656,0.19727c0.34619,0.13184,0.63232,0.3252,0.8584,0.57813
		c0.22607,0.25391,0.39307,0.56641,0.50098,0.93848c0.1084,0.37109,0.1626,0.79492,0.1626,1.27051v3.26758H89.81934z"/>
	<path class="st1" d="M91.15234,49.08496c0-0.44434,0.08252-0.8623,0.24756-1.25391
		c0.16553-0.39063,0.39648-0.73242,0.69336-1.02344s0.64941-0.52051,1.05859-0.68945
		c0.40869-0.16895,0.85498-0.25391,1.33887-0.25391c0.4873,0,0.93652,0.08496,1.34766,0.25391
		c0.41064,0.16895,0.76465,0.39844,1.06152,0.68945s0.52881,0.63281,0.6958,1.02344c0.16748,0.3916,0.25098,0.80957,0.25098,1.25391
		c0,0.44824-0.08252,0.86621-0.24805,1.25586c-0.16504,0.38965-0.39697,0.72949-0.6958,1.02051s-0.65381,0.51953-1.06445,0.6875
		c-0.41113,0.16699-0.8623,0.25-1.35352,0.25c-0.48389,0-0.9292-0.08301-1.33594-0.25
		c-0.40723-0.16797-0.75781-0.39648-1.05273-0.6875s-0.52588-0.63184-0.69336-1.02344
		C91.23584,49.94629,91.15234,49.5293,91.15234,49.08496z M92.58545,49.0791c0,0.29102,0.05029,0.55664,0.15039,0.79883
		c0.10059,0.24219,0.23682,0.4502,0.41016,0.625c0.17285,0.1748,0.37549,0.31152,0.60742,0.41016s0.48145,0.14746,0.74902,0.14746
		c0.26709,0,0.51709-0.04785,0.74902-0.14453s0.43457-0.23242,0.60742-0.40723s0.30957-0.38379,0.41016-0.62793
		c0.1001-0.24414,0.15039-0.51074,0.15039-0.80176c0-0.28711-0.05029-0.55176-0.15039-0.79395
		c-0.10059-0.24121-0.2373-0.44922-0.41016-0.62207s-0.37646-0.30859-0.61035-0.40723
		c-0.23389-0.09766-0.48291-0.14746-0.74609-0.14746c-0.26758,0-0.51709,0.04883-0.74902,0.14453
		c-0.23193,0.09668-0.43457,0.23242-0.60742,0.40723c-0.17334,0.1748-0.30957,0.38379-0.41016,0.625
		C92.63574,48.52734,92.58545,48.79199,92.58545,49.0791z"/>
	<path class="st1" d="M104.82373,46.04688l-2.58301,6.06934h-1.29785l-2.57129-6.06934h1.5332l1.68115,4.16406h0.01172
		l1.68115-4.16406H104.82373z"/>
	<path class="st1" d="M105.41357,49.08496c0-0.44434,0.07764-0.8623,0.23291-1.25391
		c0.15527-0.39063,0.37549-0.73242,0.66064-1.02344s0.62695-0.52051,1.02637-0.68945
		c0.39893-0.16895,0.84229-0.25391,1.33008-0.25391c0.22754,0,0.44482,0.02246,0.65137,0.06836
		c0.20654,0.04492,0.40039,0.10547,0.58105,0.18262c0.18066,0.07617,0.34717,0.16699,0.49854,0.27148
		c0.15137,0.10352,0.28613,0.21289,0.40381,0.32715l0.08252-0.66699h1.22705v6.06934h-1.22705l-0.08252-0.66602
		c-0.12207,0.11719-0.25928,0.22754-0.4126,0.33008c-0.15332,0.10156-0.31982,0.19141-0.49854,0.26855
		c-0.1792,0.07617-0.37158,0.13672-0.57813,0.18262c-0.20654,0.04492-0.42383,0.06738-0.65186,0.06738
		c-0.4834,0-0.9248-0.08301-1.32373-0.25c-0.39941-0.16797-0.74023-0.39648-1.02344-0.6875s-0.50342-0.63184-0.66064-1.02344
		S105.41357,49.5293,105.41357,49.08496z M106.84668,49.0791c0,0.29102,0.05127,0.55762,0.15332,0.80176
		c0.10254,0.24414,0.2417,0.45313,0.41895,0.62793c0.17676,0.1748,0.3833,0.31055,0.61914,0.40723s0.48975,0.14453,0.76074,0.14453
		c0.26758,0,0.51904-0.04785,0.75488-0.14453c0.23633-0.09668,0.44141-0.23242,0.6167-0.40723
		c0.1748-0.1748,0.31348-0.38281,0.41553-0.625c0.10254-0.24219,0.15332-0.50977,0.15332-0.80469
		c0-0.28711-0.05078-0.55176-0.15332-0.79395c-0.10205-0.24121-0.2417-0.44922-0.41846-0.62207
		c-0.17725-0.17285-0.3833-0.30859-0.61963-0.40723c-0.23584-0.09766-0.48926-0.14746-0.76074-0.14746
		c-0.271,0-0.5249,0.04883-0.76074,0.14453c-0.23584,0.09668-0.44141,0.23242-0.61621,0.40723
		c-0.17529,0.1748-0.3125,0.38379-0.41309,0.625C106.89697,48.52734,106.84668,48.79199,106.84668,49.0791z"/>
	<path class="st1" d="M114.78564,44.3252l1.0498-0.00586v1.72754H117.77v1.23926h-1.94043v2.48242
		c0,0.24414,0.02881,0.44531,0.08545,0.60449c0.05713,0.15918,0.13379,0.28516,0.23047,0.37793
		c0.09619,0.0918,0.20898,0.15723,0.33887,0.19434s0.26758,0.05664,0.41309,0.05664h1.03809l-0.01221,1.17871h-1.16162
		c-0.32666,0-0.6333-0.0332-0.92041-0.09961c-0.28662-0.06738-0.53662-0.18945-0.74902-0.36914
		c-0.21191-0.17871-0.38037-0.42383-0.50391-0.73438c-0.12402-0.31055-0.18604-0.70898-0.18604-1.19727v-2.49414h-1.01416v-1.10938
		l0.979-0.27148L114.78564,44.3252z"/>
	<path class="st1" d="M119.2627,44.33105c0-0.11035,0.02148-0.21387,0.06445-0.30957
		c0.04346-0.09668,0.10352-0.18066,0.18018-0.25391c0.07666-0.07227,0.16992-0.13086,0.28027-0.17383
		c0.10986-0.04297,0.23193-0.06543,0.36523-0.06543c0.13379,0,0.25684,0.02246,0.36865,0.06543
		c0.1123,0.04297,0.20752,0.10156,0.28613,0.17383c0.07861,0.07324,0.13965,0.15723,0.18311,0.25391
		c0.04297,0.0957,0.06494,0.19922,0.06494,0.30957s-0.02197,0.21289-0.06494,0.30957
		c-0.04346,0.09668-0.10449,0.18066-0.18311,0.25391c-0.07861,0.07227-0.17383,0.12891-0.28613,0.1709
		c-0.11182,0.04102-0.23486,0.06152-0.36865,0.06152c-0.1333,0-0.25439-0.02051-0.3623-0.06152
		c-0.1084-0.04199-0.20166-0.09863-0.28027-0.1709c-0.07861-0.07324-0.13965-0.15723-0.18311-0.25391
		C119.28418,44.54395,119.2627,44.44141,119.2627,44.33105z M119.42188,46.04688h1.44482v6.06934h-1.44482V46.04688z"/>
	<path class="st1" d="M122.56494,49.08496c0-0.44434,0.08252-0.8623,0.24756-1.25391
		c0.16553-0.39063,0.39648-0.73242,0.69336-1.02344s0.64941-0.52051,1.05859-0.68945
		c0.40869-0.16895,0.85498-0.25391,1.33887-0.25391c0.4873,0,0.93652,0.08496,1.34766,0.25391
		c0.41064,0.16895,0.76465,0.39844,1.06152,0.68945s0.52881,0.63281,0.6958,1.02344c0.16748,0.3916,0.25098,0.80957,0.25098,1.25391
		c0,0.44824-0.08252,0.86621-0.24805,1.25586c-0.16504,0.38965-0.39697,0.72949-0.6958,1.02051s-0.65381,0.51953-1.06445,0.6875
		c-0.41113,0.16699-0.8623,0.25-1.35352,0.25c-0.48389,0-0.9292-0.08301-1.33594-0.25
		c-0.40723-0.16797-0.75781-0.39648-1.05273-0.6875s-0.52588-0.63184-0.69336-1.02344
		C122.64844,49.94629,122.56494,49.5293,122.56494,49.08496z M123.99805,49.0791c0,0.29102,0.05029,0.55664,0.15039,0.79883
		c0.10059,0.24219,0.23682,0.4502,0.41016,0.625c0.17285,0.1748,0.37549,0.31152,0.60742,0.41016s0.48145,0.14746,0.74902,0.14746
		c0.26709,0,0.51709-0.04785,0.74902-0.14453s0.43457-0.23242,0.60742-0.40723s0.30957-0.38379,0.41016-0.62793
		c0.1001-0.24414,0.15039-0.51074,0.15039-0.80176c0-0.28711-0.05029-0.55176-0.15039-0.79395
		c-0.10059-0.24121-0.2373-0.44922-0.41016-0.62207s-0.37646-0.30859-0.61035-0.40723
		c-0.23389-0.09766-0.48291-0.14746-0.74609-0.14746c-0.26758,0-0.51709,0.04883-0.74902,0.14453
		c-0.23193,0.09668-0.43457,0.23242-0.60742,0.40723c-0.17334,0.1748-0.30957,0.38379-0.41016,0.625
		C124.04834,48.52734,123.99805,48.79199,123.99805,49.0791z"/>
	<path class="st1" d="M136.90332,52.11621h-1.44531v-3.23828c0-0.32227-0.03516-0.5957-0.10596-0.81934
		c-0.0708-0.22461-0.1709-0.40723-0.30078-0.54883s-0.28809-0.24414-0.4751-0.30664c-0.18652-0.0625-0.396-0.09473-0.62793-0.09473
		c-0.25146,0-0.48291,0.04688-0.69287,0.13867c-0.21045,0.09277-0.39258,0.22266-0.5459,0.38965s-0.27197,0.36523-0.35645,0.5957
		c-0.08496,0.22949-0.12695,0.48242-0.12695,0.75781v3.12598h-1.43311v-6.06934h1.16748l0.10645,0.61328
		c0.12549-0.10938,0.26709-0.21289,0.42432-0.30957c0.15723-0.0957,0.32568-0.18066,0.50439-0.25293
		c0.1792-0.07324,0.3667-0.12988,0.56348-0.17188c0.19629-0.04102,0.39502-0.06152,0.5957-0.06152
		c0.47168,0,0.88086,0.06641,1.22656,0.19727c0.34619,0.13184,0.63232,0.3252,0.8584,0.57813
		c0.22607,0.25391,0.39307,0.56641,0.50098,0.93848c0.1084,0.37109,0.1626,0.79492,0.1626,1.27051V52.11621z"/>
	<path class="st1" d="M142.42383,49.0791c0,0.30664,0.05225,0.58203,0.15625,0.8252
		c0.10449,0.24414,0.24512,0.45117,0.42188,0.62207s0.38037,0.30176,0.61035,0.39258s0.4707,0.13574,0.72266,0.13574
		c0.37354,0,0.70947-0.0918,1.0083-0.27441s0.52881-0.4375,0.69043-0.76367h1.46826
		c-0.09033,0.33008-0.23193,0.63379-0.42432,0.91113c-0.19287,0.27734-0.42578,0.51855-0.69922,0.72266
		s-0.58301,0.36328-0.92871,0.47754c-0.34619,0.11426-0.71973,0.1709-1.12061,0.1709c-0.48389,0-0.93018-0.08398-1.33887-0.25293
		c-0.40918-0.16992-0.76221-0.39941-1.05859-0.69043c-0.29736-0.29102-0.5293-0.63086-0.69629-1.02051
		s-0.25049-0.80566-0.25049-1.25s0.08252-0.8623,0.24756-1.25391c0.16504-0.39063,0.396-0.7334,0.69287-1.02637
		s0.6499-0.52344,1.05908-0.69238c0.40869-0.16895,0.85693-0.25391,1.34473-0.25391c0.40088,0,0.77344,0.05664,1.11768,0.1709
		c0.34375,0.11426,0.65234,0.27246,0.92578,0.47461c0.27344,0.20313,0.50635,0.44336,0.69922,0.72266
		c0.19238,0.2793,0.33594,0.58398,0.43018,0.91406h-1.46826c-0.15771-0.32227-0.38672-0.5752-0.6875-0.75781
		s-0.6377-0.27441-1.01123-0.27441c-0.25586,0-0.49854,0.0459-0.72852,0.13574c-0.22998,0.09082-0.43262,0.22168-0.60742,0.39258
		c-0.17529,0.1709-0.31445,0.37891-0.41895,0.62207C142.47607,48.50293,142.42383,48.77637,142.42383,49.0791z"/>
	<path class="st1" d="M148.65186,49.08496c0-0.44434,0.08252-0.8623,0.24756-1.25391
		c0.16553-0.39063,0.39648-0.73242,0.69336-1.02344s0.64941-0.52051,1.05859-0.68945
		c0.40869-0.16895,0.85498-0.25391,1.33887-0.25391c0.4873,0,0.93652,0.08496,1.34766,0.25391
		c0.41064,0.16895,0.76465,0.39844,1.06152,0.68945s0.52881,0.63281,0.6958,1.02344c0.16748,0.3916,0.25098,0.80957,0.25098,1.25391
		c0,0.44824-0.08252,0.86621-0.24805,1.25586c-0.16504,0.38965-0.39697,0.72949-0.6958,1.02051s-0.65381,0.51953-1.06445,0.6875
		c-0.41113,0.16699-0.8623,0.25-1.35352,0.25c-0.48389,0-0.9292-0.08301-1.33594-0.25
		c-0.40723-0.16797-0.75781-0.39648-1.05273-0.6875s-0.52588-0.63184-0.69336-1.02344
		C148.73535,49.94629,148.65186,49.5293,148.65186,49.08496z M150.08496,49.0791c0,0.29102,0.05029,0.55664,0.15039,0.79883
		c0.10059,0.24219,0.23682,0.4502,0.41016,0.625c0.17285,0.1748,0.37549,0.31152,0.60742,0.41016s0.48145,0.14746,0.74902,0.14746
		c0.26709,0,0.51709-0.04785,0.74902-0.14453s0.43457-0.23242,0.60742-0.40723s0.30957-0.38379,0.41016-0.62793
		c0.1001-0.24414,0.15039-0.51074,0.15039-0.80176c0-0.28711-0.05029-0.55176-0.15039-0.79395
		c-0.10059-0.24121-0.2373-0.44922-0.41016-0.62207s-0.37646-0.30859-0.61035-0.40723
		c-0.23389-0.09766-0.48291-0.14746-0.74609-0.14746c-0.26758,0-0.51709,0.04883-0.74902,0.14453
		c-0.23193,0.09668-0.43457,0.23242-0.60742,0.40723c-0.17334,0.1748-0.30957,0.38379-0.41016,0.625
		C150.13525,48.52734,150.08496,48.79199,150.08496,49.0791z"/>
	<path class="st1" d="M162.99072,52.11621h-1.44531v-3.23828c0-0.32227-0.03516-0.5957-0.10547-0.81934
		c-0.07227-0.22461-0.17188-0.40723-0.30078-0.54883c-0.13086-0.1416-0.28906-0.24414-0.47461-0.30664
		c-0.1875-0.0625-0.39648-0.09473-0.62891-0.09473c-0.25195,0-0.48242,0.04688-0.69336,0.13867
		c-0.21094,0.09277-0.39258,0.22266-0.54492,0.38965c-0.1543,0.16699-0.27344,0.36523-0.35742,0.5957
		c-0.08496,0.22949-0.12695,0.48242-0.12695,0.75781v3.12598h-1.43359v-6.06934h1.16797l0.10645,0.61328
		c0.12598-0.10938,0.2666-0.21289,0.4248-0.30957c0.15625-0.0957,0.32617-0.18066,0.50391-0.25293
		c0.17969-0.07324,0.36719-0.12988,0.56445-0.17188c0.19531-0.04102,0.39453-0.06152,0.5957-0.06152
		c0.4707,0,0.88086,0.06641,1.22656,0.19727c0.3457,0.13184,0.63086,0.3252,0.85742,0.57813
		c0.22656,0.25391,0.39258,0.56641,0.50195,0.93848c0.10742,0.37109,0.16211,0.79492,0.16211,1.27051V52.11621z"/>
	<path class="st1" d="M165.52588,50.28809c0.00391,0.11426,0.03906,0.22168,0.10352,0.32422s0.15234,0.19043,0.26367,0.26563
		c0.10938,0.07422,0.23633,0.13379,0.38281,0.17676c0.14453,0.04297,0.30273,0.06445,0.4707,0.06445
		c0.45703,0,0.79297-0.06738,1.00977-0.20313c0.21484-0.13574,0.32422-0.31934,0.32422-0.55176
		c0-0.12988-0.03906-0.2373-0.11914-0.32422c-0.07813-0.08594-0.19141-0.15918-0.3418-0.21777
		c-0.14844-0.05957-0.33203-0.11133-0.54883-0.15625c-0.21484-0.0459-0.46094-0.09375-0.73633-0.14453
		c-0.13672-0.02051-0.28125-0.0459-0.43359-0.07715c-0.15039-0.03125-0.30078-0.07324-0.45117-0.12695
		c-0.15039-0.05273-0.29102-0.12109-0.42773-0.20313c-0.13477-0.08301-0.25586-0.18359-0.35938-0.30371
		s-0.1875-0.26367-0.25-0.43066c-0.06445-0.16699-0.0957-0.36426-0.0957-0.59277c0-0.2832,0.05078-0.54199,0.1543-0.77539
		c0.10156-0.23438,0.26172-0.43652,0.47656-0.60742c0.2168-0.1709,0.49219-0.30371,0.82617-0.39844s0.73438-0.1416,1.19727-0.1416
		c0.36523,0,0.69531,0.04688,0.98828,0.1416s0.54102,0.22656,0.74609,0.39551s0.36133,0.37109,0.47266,0.60742
		c0.10938,0.23535,0.16406,0.49316,0.16406,0.77246l-1.43359-0.00586c-0.01563-0.21289-0.11523-0.3877-0.30078-0.52539
		c-0.18359-0.1377-0.42969-0.20605-0.73633-0.20605c-0.20117,0-0.37109,0.02051-0.51367,0.06152
		c-0.14063,0.04199-0.25781,0.0957-0.34766,0.16211c-0.08984,0.06738-0.1582,0.14453-0.20117,0.2334
		s-0.06445,0.17969-0.06445,0.27441c0,0.11035,0.0293,0.20215,0.08789,0.27734c0.06055,0.07422,0.14844,0.1377,0.26563,0.18848
		c0.11914,0.05078,0.26758,0.09473,0.44922,0.12988c0.17969,0.03516,0.39258,0.06641,0.63672,0.09473
		c0.29492,0.04688,0.58594,0.10449,0.87305,0.17383c0.28711,0.06836,0.54297,0.16797,0.76563,0.29785
		c0.22461,0.12988,0.40625,0.30078,0.54297,0.5127c0.13867,0.21289,0.20703,0.48535,0.20703,0.82031
		c0,0.3418-0.06836,0.63965-0.20703,0.89355c-0.13672,0.25293-0.33203,0.46484-0.58398,0.63379s-0.55469,0.2959-0.9082,0.37988
		c-0.35352,0.08496-0.74609,0.12695-1.17969,0.12695c-0.43164,0-0.81055-0.05957-1.13281-0.17969s-0.58984-0.27637-0.80469-0.46875
		s-0.375-0.40918-0.48047-0.64844c-0.10547-0.24023-0.1582-0.48242-0.1582-0.72559L165.52588,50.28809z"/>
	<path class="st1" d="M173.7251,51.05469c0.25195,0,0.47461-0.0332,0.66992-0.10059
		c0.19336-0.06641,0.35938-0.17383,0.49414-0.32129c0.13672-0.14746,0.24023-0.33594,0.31055-0.56641
		c0.07031-0.22949,0.10547-0.50977,0.10547-0.83984v-3.17969h1.43945v3.2207c0,0.53906-0.07422,0.99902-0.2207,1.37988
		c-0.14844,0.38184-0.35547,0.69531-0.62305,0.94043c-0.26758,0.24609-0.58594,0.42578-0.95508,0.54004
		s-0.77734,0.1709-1.2207,0.1709c-0.44531,0-0.85156-0.05664-1.2207-0.1709s-0.68945-0.29395-0.95508-0.54004
		c-0.26758-0.24512-0.47461-0.55859-0.62305-0.94043c-0.14648-0.38086-0.2207-0.84082-0.2207-1.37988v-3.2207h1.43945v3.17969
		c0,0.32617,0.03516,0.60449,0.10547,0.83398c0.07031,0.23047,0.17383,0.41895,0.30664,0.56641s0.29883,0.25586,0.49609,0.32422
		C173.24854,51.02051,173.47314,51.05469,173.7251,51.05469z"/>
	<path class="st1" d="M178.44189,43.80566h1.43359v8.31055h-1.43359V43.80566z"/>
	<path class="st1" d="M182.49463,44.3252l1.05078-0.00586v1.72754h1.93359v1.23926h-1.93945v2.48242
		c0,0.24414,0.02734,0.44531,0.08594,0.60449c0.05664,0.15918,0.13281,0.28516,0.22852,0.37793
		c0.09766,0.0918,0.21094,0.15723,0.33984,0.19434s0.26758,0.05664,0.41211,0.05664h1.03906l-0.01172,1.17871h-1.16211
		c-0.32617,0-0.63281-0.0332-0.91992-0.09961c-0.28711-0.06738-0.53711-0.18945-0.75-0.36914
		c-0.21094-0.17871-0.37891-0.42383-0.50391-0.73438c-0.12305-0.31055-0.18555-0.70898-0.18555-1.19727v-2.49414h-1.01367v-1.10938
		l0.97852-0.27148L182.49463,44.3252z"/>
	<path class="st1" d="M186.77588,49.08496c0-0.44434,0.07813-0.8623,0.23438-1.25391c0.1543-0.39063,0.375-0.73242,0.66016-1.02344
		s0.62695-0.52051,1.02539-0.68945s0.8418-0.25391,1.33008-0.25391c0.22852,0,0.44531,0.02246,0.65234,0.06836
		c0.20703,0.04492,0.40039,0.10547,0.58008,0.18262c0.18164,0.07617,0.34766,0.16699,0.49805,0.27148
		c0.15234,0.10352,0.28711,0.21289,0.4043,0.32715l0.08398-0.66699h1.22656v6.06934h-1.22656l-0.08398-0.66602
		c-0.12109,0.11719-0.25977,0.22754-0.41211,0.33008c-0.1543,0.10156-0.32031,0.19141-0.49805,0.26855
		c-0.17969,0.07617-0.37305,0.13672-0.57813,0.18262c-0.20703,0.04492-0.42383,0.06738-0.65234,0.06738
		c-0.48438,0-0.92578-0.08301-1.32422-0.25c-0.39844-0.16797-0.74023-0.39648-1.02344-0.6875s-0.50195-0.63184-0.66016-1.02344
		S186.77588,49.5293,186.77588,49.08496z M188.20947,49.0791c0,0.29102,0.05078,0.55762,0.1543,0.80176
		c0.10156,0.24414,0.24023,0.45313,0.41797,0.62793s0.38281,0.31055,0.61914,0.40723s0.49023,0.14453,0.76172,0.14453
		c0.26563,0,0.51758-0.04785,0.75391-0.14453s0.44141-0.23242,0.61719-0.40723c0.17383-0.1748,0.3125-0.38281,0.41602-0.625
		c0.10156-0.24219,0.15234-0.50977,0.15234-0.80469c0-0.28711-0.05078-0.55176-0.15234-0.79395
		c-0.10352-0.24121-0.24219-0.44922-0.41992-0.62207c-0.17578-0.17285-0.38281-0.30859-0.61914-0.40723
		c-0.23633-0.09766-0.49023-0.14746-0.75977-0.14746c-0.27148,0-0.52539,0.04883-0.76172,0.14453
		c-0.23633,0.09668-0.44141,0.23242-0.61719,0.40723c-0.17383,0.1748-0.3125,0.38379-0.41211,0.625
		C188.26025,48.52734,188.20947,48.79199,188.20947,49.0791z"/>
	<path class="st1" d="M201.53955,52.11621h-1.44531v-3.23828c0-0.32227-0.03516-0.5957-0.10547-0.81934
		c-0.07227-0.22461-0.17188-0.40723-0.30078-0.54883c-0.13086-0.1416-0.28906-0.24414-0.47461-0.30664
		c-0.1875-0.0625-0.39648-0.09473-0.62891-0.09473c-0.25195,0-0.48242,0.04688-0.69336,0.13867
		c-0.21094,0.09277-0.39258,0.22266-0.54492,0.38965c-0.1543,0.16699-0.27344,0.36523-0.35742,0.5957
		c-0.08398,0.22949-0.12695,0.48242-0.12695,0.75781v3.12598h-1.43359v-6.06934h1.16797l0.10742,0.61328
		c0.125-0.10938,0.26758-0.21289,0.42383-0.30957c0.1582-0.0957,0.32617-0.18066,0.50391-0.25293
		c0.17969-0.07324,0.36719-0.12988,0.56445-0.17188c0.19531-0.04102,0.39453-0.06152,0.5957-0.06152
		c0.4707,0,0.88086,0.06641,1.22656,0.19727c0.3457,0.13184,0.63086,0.3252,0.85742,0.57813
		c0.22656,0.25391,0.39258,0.56641,0.50195,0.93848c0.10742,0.37109,0.16211,0.79492,0.16211,1.27051V52.11621z"/>
	<path class="st1" d="M204.29932,49.0791c0,0.30664,0.05273,0.58203,0.15625,0.8252
		c0.10352,0.24414,0.24414,0.45117,0.42188,0.62207s0.38086,0.30176,0.61133,0.39258c0.22852,0.09082,0.4707,0.13574,0.7207,0.13574
		c0.375,0,0.71094-0.0918,1.00977-0.27441s0.5293-0.4375,0.68945-0.76367h1.46875c-0.08984,0.33008-0.23242,0.63379-0.42383,0.91113
		c-0.19336,0.27734-0.42578,0.51855-0.69922,0.72266s-0.58398,0.36328-0.92969,0.47754s-0.71875,0.1709-1.12109,0.1709
		c-0.48242,0-0.92969-0.08398-1.33789-0.25293c-0.4082-0.16992-0.76172-0.39941-1.05859-0.69043s-0.5293-0.63086-0.69531-1.02051
		c-0.16797-0.38965-0.25195-0.80566-0.25195-1.25s0.08203-0.8623,0.24805-1.25391c0.16602-0.39063,0.39648-0.7334,0.69336-1.02637
		s0.65039-0.52344,1.05859-0.69238s0.85742-0.25391,1.34375-0.25391c0.40234,0,0.77344,0.05664,1.11914,0.1709
		c0.34375,0.11426,0.65234,0.27246,0.92578,0.47461c0.27344,0.20313,0.50586,0.44336,0.69922,0.72266
		c0.19141,0.2793,0.33594,0.58398,0.42969,0.91406h-1.46875c-0.15625-0.32227-0.38672-0.5752-0.6875-0.75781
		s-0.63672-0.27441-1.01172-0.27441c-0.25391,0-0.49805,0.0459-0.72656,0.13574c-0.23047,0.09082-0.43359,0.22168-0.60938,0.39258
		c-0.17383,0.1709-0.31445,0.37891-0.41797,0.62207C204.35205,48.50293,204.29932,48.77637,204.29932,49.0791z"/>
	<path class="st1" d="M210.71729,44.33105c0-0.11035,0.02148-0.21387,0.06445-0.30957
		c0.04297-0.09668,0.10352-0.18066,0.17969-0.25391c0.07617-0.07227,0.16992-0.13086,0.28125-0.17383
		c0.10938-0.04297,0.23047-0.06543,0.36523-0.06543c0.13281,0,0.25586,0.02246,0.36914,0.06543
		c0.11133,0.04297,0.20703,0.10156,0.28516,0.17383c0.07813,0.07324,0.14063,0.15723,0.18359,0.25391
		c0.04297,0.0957,0.06445,0.19922,0.06445,0.30957s-0.02148,0.21289-0.06445,0.30957s-0.10547,0.18066-0.18359,0.25391
		c-0.07813,0.07227-0.17383,0.12891-0.28516,0.1709c-0.11328,0.04102-0.23633,0.06152-0.36914,0.06152
		c-0.13477,0-0.25586-0.02051-0.36328-0.06152c-0.10742-0.04199-0.20117-0.09863-0.2793-0.1709
		c-0.08008-0.07324-0.14063-0.15723-0.18359-0.25391S210.71729,44.44141,210.71729,44.33105z M210.87549,46.04688h1.44531v6.06934
		h-1.44531V46.04688z"/>
	<path class="st1" d="M214.02588,49.08496c0-0.44434,0.08203-0.8623,0.24805-1.25391
		c0.16406-0.39063,0.39453-0.73242,0.69141-1.02344s0.65039-0.52051,1.05859-0.68945
		c0.41016-0.16895,0.85547-0.25391,1.33984-0.25391c0.48828,0,0.9375,0.08496,1.34766,0.25391s0.76563,0.39844,1.0625,0.68945
		s0.52734,0.63281,0.69531,1.02344c0.16602,0.3916,0.25,0.80957,0.25,1.25391c0,0.09766-0.00391,0.17676-0.01172,0.23535
		c-0.00781,0.05957-0.01563,0.11621-0.02344,0.1709h-5.25c0.04883,0.24805,0.13281,0.47266,0.25781,0.67285
		c0.12305,0.2002,0.27344,0.37012,0.44727,0.50977c0.17578,0.13965,0.36914,0.24805,0.58203,0.3252
		c0.21289,0.07617,0.42969,0.11426,0.6543,0.11426c0.35352,0,0.66602-0.07813,0.9375-0.23535s0.47852-0.36426,0.61914-0.61914
		h1.55078c-0.09766,0.2666-0.24023,0.52344-0.42969,0.76953c-0.18945,0.24512-0.41602,0.46289-0.68164,0.65137
		s-0.56641,0.33887-0.90234,0.45117s-0.70508,0.16797-1.10547,0.16797c-0.48438,0-0.92969-0.08398-1.33984-0.25293
		c-0.4082-0.16992-0.76172-0.39941-1.05859-0.69043s-0.52734-0.63086-0.69141-1.02051
		C214.10791,49.94531,214.02588,49.5293,214.02588,49.08496z M217.37549,47.01465c-0.24414,0-0.46875,0.03613-0.67578,0.10938
		c-0.20508,0.07227-0.39063,0.17383-0.55469,0.30371c-0.16211,0.12891-0.30078,0.2832-0.41602,0.46289
		c-0.11328,0.17871-0.19727,0.37402-0.25195,0.58691h3.73242c-0.05469-0.21289-0.13672-0.4082-0.24805-0.58691
		c-0.10938-0.17969-0.24414-0.33398-0.40039-0.46289c-0.1582-0.12988-0.33594-0.23145-0.5332-0.30371
		C217.82861,47.05078,217.61182,47.01465,217.37549,47.01465z"/>
	<path class="st1" d="M223.10205,50.28809c0.00391,0.11426,0.03906,0.22168,0.10352,0.32422s0.15234,0.19043,0.26367,0.26563
		c0.10938,0.07422,0.23633,0.13379,0.38281,0.17676c0.14453,0.04297,0.30273,0.06445,0.4707,0.06445
		c0.45703,0,0.79297-0.06738,1.00977-0.20313c0.21484-0.13574,0.32422-0.31934,0.32422-0.55176
		c0-0.12988-0.03906-0.2373-0.11914-0.32422c-0.07813-0.08594-0.19141-0.15918-0.3418-0.21777
		c-0.14844-0.05957-0.33203-0.11133-0.54883-0.15625c-0.21484-0.0459-0.46094-0.09375-0.73633-0.14453
		c-0.13672-0.02051-0.28125-0.0459-0.43359-0.07715c-0.15039-0.03125-0.30078-0.07324-0.45117-0.12695
		c-0.15039-0.05273-0.29102-0.12109-0.42773-0.20313c-0.13477-0.08301-0.25586-0.18359-0.35938-0.30371
		s-0.1875-0.26367-0.25-0.43066c-0.06445-0.16699-0.0957-0.36426-0.0957-0.59277c0-0.2832,0.05078-0.54199,0.1543-0.77539
		c0.10156-0.23438,0.26172-0.43652,0.47656-0.60742c0.2168-0.1709,0.49219-0.30371,0.82617-0.39844s0.73438-0.1416,1.19727-0.1416
		c0.36523,0,0.69531,0.04688,0.98828,0.1416s0.54102,0.22656,0.74609,0.39551s0.36133,0.37109,0.47266,0.60742
		c0.10938,0.23535,0.16406,0.49316,0.16406,0.77246l-1.43359-0.00586c-0.01563-0.21289-0.11523-0.3877-0.30078-0.52539
		c-0.18359-0.1377-0.42969-0.20605-0.73633-0.20605c-0.20117,0-0.37109,0.02051-0.51367,0.06152
		c-0.14063,0.04199-0.25781,0.0957-0.34766,0.16211c-0.08984,0.06738-0.1582,0.14453-0.20117,0.2334
		s-0.06445,0.17969-0.06445,0.27441c0,0.11035,0.0293,0.20215,0.08789,0.27734c0.06055,0.07422,0.14844,0.1377,0.26563,0.18848
		c0.11914,0.05078,0.26758,0.09473,0.44922,0.12988c0.17969,0.03516,0.39258,0.06641,0.63672,0.09473
		c0.29492,0.04688,0.58594,0.10449,0.87305,0.17383c0.28711,0.06836,0.54297,0.16797,0.76563,0.29785
		c0.22461,0.12988,0.40625,0.30078,0.54297,0.5127c0.13867,0.21289,0.20703,0.48535,0.20703,0.82031
		c0,0.3418-0.06836,0.63965-0.20703,0.89355c-0.13672,0.25293-0.33203,0.46484-0.58398,0.63379s-0.55469,0.2959-0.9082,0.37988
		c-0.35352,0.08496-0.74609,0.12695-1.17969,0.12695c-0.43164,0-0.81055-0.05957-1.13281-0.17969s-0.58984-0.27637-0.80469-0.46875
		s-0.375-0.40918-0.48047-0.64844c-0.10547-0.24023-0.1582-0.48242-0.1582-0.72559L223.10205,50.28809z"/>
	<path class="st1" d="M230.87549,49.08496c0-0.44434,0.07813-0.8623,0.23438-1.25391c0.1543-0.39063,0.375-0.73242,0.66016-1.02344
		s0.62695-0.52051,1.02539-0.68945s0.8418-0.25391,1.33008-0.25391c0.22852,0,0.44531,0.02246,0.65234,0.06836
		c0.20703,0.04492,0.40039,0.10547,0.58008,0.18262c0.18164,0.07617,0.34766,0.16699,0.49805,0.27148
		c0.15234,0.10352,0.28711,0.21289,0.4043,0.32715l0.08398-0.66699h1.22656v6.06934h-1.22656l-0.08398-0.66602
		c-0.12109,0.11719-0.25977,0.22754-0.41211,0.33008c-0.1543,0.10156-0.32031,0.19141-0.49805,0.26855
		c-0.17969,0.07617-0.37305,0.13672-0.57813,0.18262c-0.20703,0.04492-0.42383,0.06738-0.65234,0.06738
		c-0.48438,0-0.92578-0.08301-1.32422-0.25c-0.39844-0.16797-0.74023-0.39648-1.02344-0.6875s-0.50195-0.63184-0.66016-1.02344
		S230.87549,49.5293,230.87549,49.08496z M232.30908,49.0791c0,0.29102,0.05078,0.55762,0.1543,0.80176
		c0.10156,0.24414,0.24023,0.45313,0.41797,0.62793s0.38281,0.31055,0.61914,0.40723s0.49023,0.14453,0.76172,0.14453
		c0.26563,0,0.51758-0.04785,0.75391-0.14453s0.44141-0.23242,0.61719-0.40723c0.17383-0.1748,0.3125-0.38281,0.41602-0.625
		c0.10156-0.24219,0.15234-0.50977,0.15234-0.80469c0-0.28711-0.05078-0.55176-0.15234-0.79395
		c-0.10352-0.24121-0.24219-0.44922-0.41992-0.62207c-0.17578-0.17285-0.38281-0.30859-0.61914-0.40723
		c-0.23633-0.09766-0.49023-0.14746-0.75977-0.14746c-0.27148,0-0.52539,0.04883-0.76172,0.14453
		c-0.23633,0.09668-0.44141,0.23242-0.61719,0.40723c-0.17383,0.1748-0.3125,0.38379-0.41211,0.625
		C232.35986,48.52734,232.30908,48.79199,232.30908,49.0791z"/>
	<path class="st1" d="M240.3833,50.28809c0.00391,0.11426,0.03906,0.22168,0.10352,0.32422s0.15234,0.19043,0.26367,0.26563
		c0.10938,0.07422,0.23633,0.13379,0.38281,0.17676c0.14453,0.04297,0.30273,0.06445,0.4707,0.06445
		c0.45703,0,0.79297-0.06738,1.00977-0.20313c0.21484-0.13574,0.32422-0.31934,0.32422-0.55176
		c0-0.12988-0.03906-0.2373-0.11914-0.32422c-0.07813-0.08594-0.19141-0.15918-0.3418-0.21777
		c-0.14844-0.05957-0.33203-0.11133-0.54883-0.15625c-0.21484-0.0459-0.46094-0.09375-0.73633-0.14453
		c-0.13672-0.02051-0.28125-0.0459-0.43359-0.07715c-0.15039-0.03125-0.30078-0.07324-0.45117-0.12695
		c-0.15039-0.05273-0.29102-0.12109-0.42773-0.20313c-0.13477-0.08301-0.25586-0.18359-0.35938-0.30371
		s-0.1875-0.26367-0.25-0.43066c-0.06445-0.16699-0.0957-0.36426-0.0957-0.59277c0-0.2832,0.05078-0.54199,0.1543-0.77539
		c0.10156-0.23438,0.26172-0.43652,0.47656-0.60742c0.2168-0.1709,0.49219-0.30371,0.82617-0.39844s0.73438-0.1416,1.19727-0.1416
		c0.36523,0,0.69531,0.04688,0.98828,0.1416s0.54102,0.22656,0.74609,0.39551s0.36133,0.37109,0.47266,0.60742
		c0.10938,0.23535,0.16406,0.49316,0.16406,0.77246l-1.43359-0.00586c-0.01563-0.21289-0.11523-0.3877-0.30078-0.52539
		c-0.18359-0.1377-0.42969-0.20605-0.73633-0.20605c-0.20117,0-0.37109,0.02051-0.51367,0.06152
		c-0.14063,0.04199-0.25781,0.0957-0.34766,0.16211c-0.08984,0.06738-0.1582,0.14453-0.20117,0.2334
		s-0.06445,0.17969-0.06445,0.27441c0,0.11035,0.0293,0.20215,0.08789,0.27734c0.06055,0.07422,0.14844,0.1377,0.26563,0.18848
		c0.11914,0.05078,0.26758,0.09473,0.44922,0.12988c0.17969,0.03516,0.39258,0.06641,0.63672,0.09473
		c0.29492,0.04688,0.58594,0.10449,0.87305,0.17383c0.28711,0.06836,0.54297,0.16797,0.76563,0.29785
		c0.22461,0.12988,0.40625,0.30078,0.54297,0.5127c0.13867,0.21289,0.20703,0.48535,0.20703,0.82031
		c0,0.3418-0.06836,0.63965-0.20703,0.89355c-0.13672,0.25293-0.33203,0.46484-0.58398,0.63379s-0.55469,0.2959-0.9082,0.37988
		c-0.35352,0.08496-0.74609,0.12695-1.17969,0.12695c-0.43164,0-0.81055-0.05957-1.13281-0.17969s-0.58984-0.27637-0.80469-0.46875
		s-0.375-0.40918-0.48047-0.64844c-0.10547-0.24023-0.1582-0.48242-0.1582-0.72559L240.3833,50.28809z"/>
	<path class="st1" d="M246.60596,50.28809c0.00391,0.11426,0.03906,0.22168,0.10352,0.32422s0.15234,0.19043,0.26367,0.26563
		c0.10938,0.07422,0.23633,0.13379,0.38281,0.17676c0.14453,0.04297,0.30273,0.06445,0.4707,0.06445
		c0.45703,0,0.79297-0.06738,1.00977-0.20313c0.21484-0.13574,0.32422-0.31934,0.32422-0.55176
		c0-0.12988-0.03906-0.2373-0.11914-0.32422c-0.07813-0.08594-0.19141-0.15918-0.3418-0.21777
		c-0.14844-0.05957-0.33203-0.11133-0.54883-0.15625c-0.21484-0.0459-0.46094-0.09375-0.73633-0.14453
		c-0.13672-0.02051-0.28125-0.0459-0.43359-0.07715c-0.15039-0.03125-0.30078-0.07324-0.45117-0.12695
		c-0.15039-0.05273-0.29102-0.12109-0.42773-0.20313c-0.13477-0.08301-0.25586-0.18359-0.35938-0.30371
		s-0.1875-0.26367-0.25-0.43066c-0.06445-0.16699-0.0957-0.36426-0.0957-0.59277c0-0.2832,0.05078-0.54199,0.1543-0.77539
		c0.10156-0.23438,0.26172-0.43652,0.47656-0.60742c0.2168-0.1709,0.49219-0.30371,0.82617-0.39844s0.73438-0.1416,1.19727-0.1416
		c0.36523,0,0.69531,0.04688,0.98828,0.1416s0.54102,0.22656,0.74609,0.39551s0.36133,0.37109,0.47266,0.60742
		c0.10938,0.23535,0.16406,0.49316,0.16406,0.77246l-1.43359-0.00586c-0.01563-0.21289-0.11523-0.3877-0.30078-0.52539
		c-0.18359-0.1377-0.42969-0.20605-0.73633-0.20605c-0.20117,0-0.37109,0.02051-0.51367,0.06152
		c-0.14063,0.04199-0.25781,0.0957-0.34766,0.16211c-0.08984,0.06738-0.1582,0.14453-0.20117,0.2334
		s-0.06445,0.17969-0.06445,0.27441c0,0.11035,0.0293,0.20215,0.08789,0.27734c0.06055,0.07422,0.14844,0.1377,0.26563,0.18848
		c0.11914,0.05078,0.26758,0.09473,0.44922,0.12988c0.17969,0.03516,0.39258,0.06641,0.63672,0.09473
		c0.29492,0.04688,0.58594,0.10449,0.87305,0.17383c0.28711,0.06836,0.54297,0.16797,0.76563,0.29785
		c0.22461,0.12988,0.40625,0.30078,0.54297,0.5127c0.13867,0.21289,0.20703,0.48535,0.20703,0.82031
		c0,0.3418-0.06836,0.63965-0.20703,0.89355c-0.13672,0.25293-0.33203,0.46484-0.58398,0.63379s-0.55469,0.2959-0.9082,0.37988
		c-0.35352,0.08496-0.74609,0.12695-1.17969,0.12695c-0.43164,0-0.81055-0.05957-1.13281-0.17969s-0.58984-0.27637-0.80469-0.46875
		s-0.375-0.40918-0.48047-0.64844c-0.10547-0.24023-0.1582-0.48242-0.1582-0.72559L246.60596,50.28809z"/>
	<path class="st1" d="M251.62549,49.08496c0-0.44434,0.08203-0.8623,0.24805-1.25391
		c0.16406-0.39063,0.39453-0.73242,0.69141-1.02344s0.65039-0.52051,1.05859-0.68945
		c0.41016-0.16895,0.85547-0.25391,1.33984-0.25391c0.48828,0,0.9375,0.08496,1.34766,0.25391s0.76563,0.39844,1.0625,0.68945
		s0.52734,0.63281,0.69531,1.02344c0.16602,0.3916,0.25,0.80957,0.25,1.25391c0,0.44824-0.08203,0.86621-0.24805,1.25586
		c-0.16406,0.38965-0.39648,0.72949-0.69531,1.02051s-0.6543,0.51953-1.06445,0.6875c-0.41016,0.16699-0.86133,0.25-1.35352,0.25
		c-0.48438,0-0.92969-0.08301-1.33594-0.25c-0.40625-0.16797-0.75781-0.39648-1.05273-0.6875s-0.52539-0.63184-0.69336-1.02344
		S251.62549,49.5293,251.62549,49.08496z M253.05908,49.0791c0,0.29102,0.04883,0.55664,0.15039,0.79883
		c0.09961,0.24219,0.23633,0.4502,0.4082,0.625c0.17383,0.1748,0.37695,0.31152,0.60742,0.41016
		c0.23242,0.09863,0.48242,0.14746,0.75,0.14746s0.51758-0.04785,0.74805-0.14453c0.23242-0.09668,0.43555-0.23242,0.60938-0.40723
		c0.17188-0.1748,0.30859-0.38379,0.4082-0.62793c0.10156-0.24414,0.15039-0.51074,0.15039-0.80176
		c0-0.28711-0.04883-0.55176-0.15039-0.79395c-0.09961-0.24121-0.23633-0.44922-0.4082-0.62207
		c-0.17383-0.17285-0.37695-0.30859-0.61133-0.40723c-0.23438-0.09766-0.48242-0.14746-0.74609-0.14746
		c-0.26758,0-0.51758,0.04883-0.75,0.14453c-0.23047,0.09668-0.43359,0.23242-0.60742,0.40723
		c-0.17188,0.1748-0.30859,0.38379-0.4082,0.625C253.10791,48.52734,253.05908,48.79199,253.05908,49.0791z"/>
	<path class="st1" d="M260.93213,49.0791c0,0.30664,0.05273,0.58203,0.15625,0.8252
		c0.10352,0.24414,0.24414,0.45117,0.42188,0.62207s0.38086,0.30176,0.61133,0.39258c0.22852,0.09082,0.4707,0.13574,0.7207,0.13574
		c0.375,0,0.71094-0.0918,1.00977-0.27441s0.5293-0.4375,0.68945-0.76367h1.46875c-0.08984,0.33008-0.23242,0.63379-0.42383,0.91113
		c-0.19336,0.27734-0.42578,0.51855-0.69922,0.72266s-0.58398,0.36328-0.92969,0.47754s-0.71875,0.1709-1.12109,0.1709
		c-0.48242,0-0.92969-0.08398-1.33789-0.25293c-0.4082-0.16992-0.76172-0.39941-1.05859-0.69043s-0.5293-0.63086-0.69531-1.02051
		c-0.16797-0.38965-0.25195-0.80566-0.25195-1.25s0.08203-0.8623,0.24805-1.25391c0.16602-0.39063,0.39648-0.7334,0.69336-1.02637
		s0.65039-0.52344,1.05859-0.69238s0.85742-0.25391,1.34375-0.25391c0.40234,0,0.77344,0.05664,1.11914,0.1709
		c0.34375,0.11426,0.65234,0.27246,0.92578,0.47461c0.27344,0.20313,0.50586,0.44336,0.69922,0.72266
		c0.19141,0.2793,0.33594,0.58398,0.42969,0.91406h-1.46875c-0.15625-0.32227-0.38672-0.5752-0.6875-0.75781
		s-0.63672-0.27441-1.01172-0.27441c-0.25391,0-0.49805,0.0459-0.72656,0.13574c-0.23047,0.09082-0.43359,0.22168-0.60938,0.39258
		c-0.17383,0.1709-0.31445,0.37891-0.41797,0.62207C260.98486,48.50293,260.93213,48.77637,260.93213,49.0791z"/>
	<path class="st1" d="M267.3501,44.33105c0-0.11035,0.02148-0.21387,0.06445-0.30957
		c0.04297-0.09668,0.10352-0.18066,0.17969-0.25391c0.07617-0.07227,0.16992-0.13086,0.28125-0.17383
		c0.10938-0.04297,0.23047-0.06543,0.36523-0.06543c0.13281,0,0.25586,0.02246,0.36914,0.06543
		c0.11133,0.04297,0.20703,0.10156,0.28516,0.17383c0.07813,0.07324,0.14063,0.15723,0.18359,0.25391
		c0.04297,0.0957,0.06445,0.19922,0.06445,0.30957s-0.02148,0.21289-0.06445,0.30957s-0.10547,0.18066-0.18359,0.25391
		c-0.07813,0.07227-0.17383,0.12891-0.28516,0.1709c-0.11328,0.04102-0.23633,0.06152-0.36914,0.06152
		c-0.13477,0-0.25586-0.02051-0.36328-0.06152c-0.10742-0.04199-0.20117-0.09863-0.2793-0.1709
		c-0.08008-0.07324-0.14063-0.15723-0.18359-0.25391S267.3501,44.44141,267.3501,44.33105z M267.5083,46.04688h1.44531v6.06934
		h-1.44531V46.04688z"/>
	<path class="st1" d="M270.64697,49.08496c0-0.44434,0.07617-0.8623,0.23242-1.25391c0.15625-0.39063,0.375-0.73242,0.66016-1.02344
		s0.62695-0.52051,1.02734-0.68945c0.39844-0.16895,0.8418-0.25391,1.33008-0.25391c0.22656,0,0.44531,0.02246,0.65039,0.06836
		c0.20703,0.04492,0.40039,0.10547,0.58203,0.18262c0.17969,0.07617,0.3457,0.16699,0.49805,0.27148
		c0.15039,0.10352,0.28516,0.21289,0.4043,0.32715l0.08203-0.66699h1.22656v6.06934h-1.22656l-0.08203-0.66602
		c-0.12305,0.11719-0.25977,0.22754-0.41406,0.33008c-0.15234,0.10156-0.31836,0.19141-0.49805,0.26855
		c-0.17773,0.07617-0.37109,0.13672-0.57813,0.18262c-0.20508,0.04492-0.42383,0.06738-0.65039,0.06738
		c-0.48438,0-0.92578-0.08301-1.32422-0.25c-0.40039-0.16797-0.74023-0.39648-1.02344-0.6875s-0.50391-0.63184-0.66016-1.02344
		C270.7251,49.94629,270.64697,49.5293,270.64697,49.08496z M272.08057,49.0791c0,0.29102,0.05078,0.55762,0.15234,0.80176
		s0.24219,0.45313,0.41797,0.62793c0.17773,0.1748,0.38477,0.31055,0.62109,0.40723
		c0.23438,0.09668,0.48828,0.14453,0.75977,0.14453c0.26758,0,0.51953-0.04785,0.75586-0.14453
		c0.23438-0.09668,0.44141-0.23242,0.61523-0.40723c0.17578-0.1748,0.31445-0.38281,0.41602-0.625s0.1543-0.50977,0.1543-0.80469
		c0-0.28711-0.05273-0.55176-0.1543-0.79395c-0.10156-0.24121-0.24219-0.44922-0.41797-0.62207
		c-0.17773-0.17285-0.38477-0.30859-0.61914-0.40723c-0.23633-0.09766-0.49023-0.14746-0.76172-0.14746
		s-0.52539,0.04883-0.76172,0.14453c-0.23438,0.09668-0.44141,0.23242-0.61523,0.40723
		c-0.17578,0.1748-0.3125,0.38379-0.41211,0.625C272.12939,48.52734,272.08057,48.79199,272.08057,49.0791z"/>
	<path class="st1" d="M280.01807,44.3252l1.05078-0.00586v1.72754h1.93359v1.23926h-1.93945v2.48242
		c0,0.24414,0.02734,0.44531,0.08594,0.60449c0.05664,0.15918,0.13281,0.28516,0.22852,0.37793
		c0.09766,0.0918,0.21094,0.15723,0.33984,0.19434s0.26758,0.05664,0.41211,0.05664h1.03906l-0.01172,1.17871h-1.16211
		c-0.32617,0-0.63281-0.0332-0.91992-0.09961c-0.28711-0.06738-0.53711-0.18945-0.75-0.36914
		c-0.21094-0.17871-0.37891-0.42383-0.50391-0.73438c-0.12305-0.31055-0.18555-0.70898-0.18555-1.19727v-2.49414h-1.01367v-1.10938
		l0.97852-0.27148L280.01807,44.3252z"/>
	<path class="st1" d="M284.49463,44.33105c0-0.11035,0.02148-0.21387,0.06641-0.30957
		c0.04297-0.09668,0.10156-0.18066,0.17969-0.25391c0.07617-0.07227,0.16992-0.13086,0.2793-0.17383
		s0.23242-0.06543,0.36523-0.06543c0.13477,0,0.25781,0.02246,0.36914,0.06543s0.20703,0.10156,0.28711,0.17383
		c0.07813,0.07324,0.13867,0.15723,0.18164,0.25391c0.04297,0.0957,0.06445,0.19922,0.06445,0.30957
		s-0.02148,0.21289-0.06445,0.30957s-0.10352,0.18066-0.18164,0.25391c-0.08008,0.07227-0.17578,0.12891-0.28711,0.1709
		c-0.11133,0.04102-0.23438,0.06152-0.36914,0.06152c-0.13281,0-0.25391-0.02051-0.36133-0.06152
		c-0.10938-0.04199-0.20313-0.09863-0.28125-0.1709c-0.07813-0.07324-0.13867-0.15723-0.18164-0.25391
		C284.51611,44.54395,284.49463,44.44141,284.49463,44.33105z M284.65479,46.04688h1.44531v6.06934h-1.44531V46.04688z"/>
	<path class="st1" d="M287.79736,49.08496c0-0.44434,0.08398-0.8623,0.24805-1.25391
		c0.16602-0.39063,0.39648-0.73242,0.69336-1.02344s0.65039-0.52051,1.05859-0.68945s0.85547-0.25391,1.33789-0.25391
		c0.48828,0,0.9375,0.08496,1.34766,0.25391c0.41211,0.16895,0.76563,0.39844,1.0625,0.68945s0.5293,0.63281,0.69531,1.02344
		c0.16797,0.3916,0.25195,0.80957,0.25195,1.25391c0,0.44824-0.08398,0.86621-0.24805,1.25586
		c-0.16602,0.38965-0.39648,0.72949-0.69531,1.02051s-0.6543,0.51953-1.06641,0.6875c-0.41016,0.16699-0.86133,0.25-1.35352,0.25
		c-0.48242,0-0.92773-0.08301-1.33594-0.25c-0.40625-0.16797-0.75781-0.39648-1.05273-0.6875s-0.52539-0.63184-0.69141-1.02344
		C287.88135,49.94629,287.79736,49.5293,287.79736,49.08496z M289.23096,49.0791c0,0.29102,0.05078,0.55664,0.15039,0.79883
		s0.23633,0.4502,0.41016,0.625s0.375,0.31152,0.60742,0.41016s0.48242,0.14746,0.74805,0.14746
		c0.26758,0,0.51758-0.04785,0.75-0.14453s0.43359-0.23242,0.60742-0.40723s0.31055-0.38379,0.41016-0.62793
		s0.15039-0.51074,0.15039-0.80176c0-0.28711-0.05078-0.55176-0.15039-0.79395c-0.09961-0.24121-0.23633-0.44922-0.41016-0.62207
		s-0.37695-0.30859-0.61133-0.40723c-0.23242-0.09766-0.48242-0.14746-0.74609-0.14746c-0.26563,0-0.51563,0.04883-0.74805,0.14453
		c-0.23242,0.09668-0.43359,0.23242-0.60742,0.40723s-0.31055,0.38379-0.41016,0.625
		C289.28174,48.52734,289.23096,48.79199,289.23096,49.0791z"/>
	<path class="st1" d="M302.13525,52.11621h-1.44336v-3.23828c0-0.32227-0.03711-0.5957-0.10742-0.81934
		c-0.07031-0.22461-0.16992-0.40723-0.30078-0.54883c-0.12891-0.1416-0.28711-0.24414-0.47461-0.30664
		s-0.39648-0.09473-0.62695-0.09473c-0.25195,0-0.48438,0.04688-0.69336,0.13867c-0.21094,0.09277-0.39258,0.22266-0.54688,0.38965
		c-0.15234,0.16699-0.27148,0.36523-0.35547,0.5957c-0.08594,0.22949-0.12695,0.48242-0.12695,0.75781v3.12598h-1.43359v-6.06934
		h1.16797l0.10547,0.61328c0.12695-0.10938,0.26758-0.21289,0.42578-0.30957c0.15625-0.0957,0.32422-0.18066,0.50391-0.25293
		c0.17773-0.07324,0.36719-0.12988,0.5625-0.17188c0.19727-0.04102,0.39648-0.06152,0.5957-0.06152
		c0.47266,0,0.88086,0.06641,1.22656,0.19727c0.3457,0.13184,0.63281,0.3252,0.85938,0.57813
		c0.22461,0.25391,0.39258,0.56641,0.5,0.93848c0.10938,0.37109,0.16211,0.79492,0.16211,1.27051V52.11621z"/>
</g>
</svg>
